<?xml version="1.0" encoding="UTF-8" standalone="no"?>
<svg
   xmlns:dc="http://purl.org/dc/elements/1.1/"
   xmlns:cc="http://creativecommons.org/ns#"
   xmlns:rdf="http://www.w3.org/1999/02/22-rdf-syntax-ns#"
   xmlns:svg="http://www.w3.org/2000/svg"
   xmlns="http://www.w3.org/2000/svg"
   xmlns:xlink="http://www.w3.org/1999/xlink"
   xmlns:sodipodi="http://sodipodi.sourceforge.net/DTD/sodipodi-0.dtd"
   xmlns:inkscape="http://www.inkscape.org/namespaces/inkscape"
   version="1.1"
   id="Layer_1"
   x="0px"
   y="0px"
   width="568.929px"
   height="116.145px"
   viewBox="-1 -1 568.929 116.145"
   enable-background="new -1 -1 568.929 116.145"
   xml:space="preserve"
   sodipodi:docname="system.svg"
   inkscape:version="1.0.2 (e86c8708, 2021-01-15)"><metadata
   id="metadata1582"><rdf:RDF><cc:Work
       rdf:about=""><dc:format>image/svg+xml</dc:format><dc:type
         rdf:resource="http://purl.org/dc/dcmitype/StillImage" /></cc:Work></rdf:RDF></metadata><defs
   id="defs1580"><linearGradient
   inkscape:collect="always"
   id="linearGradient1588"><stop
     style="stop-color:#ff00ff;stop-opacity:1"
     offset="0"
     id="stop1584" /><stop
     style="stop-color:#0600ff;stop-opacity:1"
     offset="1"
     id="stop1586" /></linearGradient><linearGradient
   inkscape:collect="always"
   xlink:href="#linearGradient1588"
   id="linearGradient1590"
   x1="-1"
   y1="57.0725"
   x2="567.929"
   y2="57.0725"
   gradientUnits="userSpaceOnUse" /><linearGradient
   inkscape:collect="always"
   xlink:href="#linearGradient1588"
   id="linearGradient1592"
   gradientUnits="userSpaceOnUse"
   x1="-1"
   y1="57.0725"
   x2="567.929"
   y2="57.0725" /><linearGradient
   inkscape:collect="always"
   xlink:href="#linearGradient1588"
   id="linearGradient1598"
   gradientUnits="userSpaceOnUse"
   x1="-1"
   y1="57.0725"
   x2="567.929"
   y2="57.0725" /><linearGradient
   inkscape:collect="always"
   xlink:href="#linearGradient1588"
   id="linearGradient1600"
   gradientUnits="userSpaceOnUse"
   x1="-1"
   y1="57.0725"
   x2="567.929"
   y2="57.0725" /><linearGradient
   inkscape:collect="always"
   xlink:href="#linearGradient1588"
   id="linearGradient1602"
   gradientUnits="userSpaceOnUse"
   x1="-1"
   y1="57.0725"
   x2="567.929"
   y2="57.0725" /><linearGradient
   inkscape:collect="always"
   xlink:href="#linearGradient1588"
   id="linearGradient1606"
   gradientUnits="userSpaceOnUse"
   x1="-1"
   y1="57.0725"
   x2="567.929"
   y2="57.0725" /><linearGradient
   inkscape:collect="always"
   xlink:href="#linearGradient1588"
   id="linearGradient1608"
   gradientUnits="userSpaceOnUse"
   x1="-1"
   y1="57.0725"
   x2="567.929"
   y2="57.0725" /><linearGradient
   inkscape:collect="always"
   xlink:href="#linearGradient1588"
   id="linearGradient1612"
   gradientUnits="userSpaceOnUse"
   x1="-1"
   y1="57.0725"
   x2="567.929"
   y2="57.0725" /><linearGradient
   inkscape:collect="always"
   xlink:href="#linearGradient1588"
   id="linearGradient1614"
   gradientUnits="userSpaceOnUse"
   x1="-1"
   y1="57.0725"
   x2="567.929"
   y2="57.0725" /><linearGradient
   inkscape:collect="always"
   xlink:href="#linearGradient1588"
   id="linearGradient1618"
   gradientUnits="userSpaceOnUse"
   x1="-1"
   y1="57.0725"
   x2="567.929"
   y2="57.0725" /><linearGradient
   inkscape:collect="always"
   xlink:href="#linearGradient1588"
   id="linearGradient1620"
   gradientUnits="userSpaceOnUse"
   x1="-1"
   y1="57.0725"
   x2="567.929"
   y2="57.0725" /><linearGradient
   inkscape:collect="always"
   xlink:href="#linearGradient1588"
   id="linearGradient1624"
   gradientUnits="userSpaceOnUse"
   x1="-1"
   y1="57.0725"
   x2="567.929"
   y2="57.0725" /><linearGradient
   inkscape:collect="always"
   xlink:href="#linearGradient1588"
   id="linearGradient1626"
   gradientUnits="userSpaceOnUse"
   x1="-1"
   y1="57.0725"
   x2="567.929"
   y2="57.0725" /><linearGradient
   inkscape:collect="always"
   xlink:href="#linearGradient1588"
   id="linearGradient1630"
   gradientUnits="userSpaceOnUse"
   x1="-1"
   y1="57.0725"
   x2="567.929"
   y2="57.0725" /><linearGradient
   inkscape:collect="always"
   xlink:href="#linearGradient1588"
   id="linearGradient1632"
   gradientUnits="userSpaceOnUse"
   x1="-1"
   y1="57.0725"
   x2="567.929"
   y2="57.0725" /><linearGradient
   inkscape:collect="always"
   xlink:href="#linearGradient1588"
   id="linearGradient1634"
   gradientUnits="userSpaceOnUse"
   x1="-1"
   y1="57.0725"
   x2="567.929"
   y2="57.0725" /><linearGradient
   inkscape:collect="always"
   xlink:href="#linearGradient1588"
   id="linearGradient1638"
   gradientUnits="userSpaceOnUse"
   x1="-1"
   y1="57.0725"
   x2="567.929"
   y2="57.0725" /><linearGradient
   inkscape:collect="always"
   xlink:href="#linearGradient1588"
   id="linearGradient1640"
   gradientUnits="userSpaceOnUse"
   x1="-1"
   y1="57.0725"
   x2="567.929"
   y2="57.0725" /><linearGradient
   inkscape:collect="always"
   xlink:href="#linearGradient1588"
   id="linearGradient1642"
   gradientUnits="userSpaceOnUse"
   x1="-1"
   y1="57.0725"
   x2="567.929"
   y2="57.0725" />
	
	
	
		<linearGradient
   id="path14_1_"
   gradientUnits="userSpaceOnUse"
   x1="308.144"
   y1="1410.9641"
   x2="308.144"
   y2="1515.9807"
   gradientTransform="matrix(1 0 0 1 -24.4248 -1406.4004)"
   style="stroke:url(#linearGradient1590)">
		<stop
   offset="0"
   style="stop-color:#D9DDE9;stroke:url(#linearGradient1590)"
   id="stop1352" />
		<stop
   offset="0.39"
   style="stop-color:#777489;stroke:url(#linearGradient1590)"
   id="stop1354" />
		<stop
   offset="0.98"
   style="stop-color:#D9DDE9;stroke:url(#linearGradient1590)"
   id="stop1356" />
	</linearGradient>
	
	
	
	
	
	
	
	
	

		
			<linearGradient
   id="polygon37_2_"
   gradientUnits="userSpaceOnUse"
   x1="220.79491"
   y1="1450.0256"
   x2="270.3067"
   y2="1499.5374"
   gradientTransform="translate(-24.4248,-1406.4004)">
			<stop
   offset="0"
   style="stop-color:#D9DDE9;stroke:url(#linearGradient1590)"
   id="stop1361" />
			<stop
   offset="0.39"
   style="stop-color:#777489;stroke:url(#linearGradient1590)"
   id="stop1363" />
			<stop
   offset="0.98"
   style="stop-color:#D9DDE9;stroke:url(#linearGradient1590)"
   id="stop1365" />
		</linearGradient>
		
		
			<linearGradient
   id="polygon37_3_"
   gradientUnits="userSpaceOnUse"
   x1="221.6904"
   y1="1450.804"
   x2="269.7215"
   y2="1498.8352"
   gradientTransform="translate(-24.4248,-1406.4004)">
			<stop
   offset="0"
   style="stop-color:#000000;stroke:url(#linearGradient1590)"
   id="stop1369" />
			<stop
   offset="0.11"
   style="stop-color:#181C4E;stroke:url(#linearGradient1590)"
   id="stop1371" />
			<stop
   offset="0.22"
   style="stop-color:#181818;stroke:url(#linearGradient1590)"
   id="stop1373" />
			<stop
   offset="0.34"
   style="stop-color:#181C4E;stroke:url(#linearGradient1590)"
   id="stop1375" />
			<stop
   offset="0.47"
   style="stop-color:#000000;stroke:url(#linearGradient1590)"
   id="stop1377" />
			<stop
   offset="0.59"
   style="stop-color:#181C4E;stroke:url(#linearGradient1590)"
   id="stop1379" />
			<stop
   offset="0.72"
   style="stop-color:#000000;stroke:url(#linearGradient1590)"
   id="stop1381" />
			<stop
   offset="0.84"
   style="stop-color:#181C4E;stroke:url(#linearGradient1590)"
   id="stop1383" />
			<stop
   offset="0.98"
   style="stop-color:#000000;stroke:url(#linearGradient1590)"
   id="stop1385" />
		</linearGradient>
		
	
		
			<linearGradient
   id="rect58_2_"
   gradientUnits="userSpaceOnUse"
   x1="449.50931"
   y1="1461.4338"
   x2="499.7514"
   y2="1514.8802"
   gradientTransform="translate(-24.4248,-1406.4004)">
			<stop
   offset="0"
   style="stop-color:#D9DDE9;stroke:url(#linearGradient1590)"
   id="stop1391" />
			<stop
   offset="0.39"
   style="stop-color:#777489;stroke:url(#linearGradient1590)"
   id="stop1393" />
			<stop
   offset="0.98"
   style="stop-color:#D9DDE9;stroke:url(#linearGradient1590)"
   id="stop1395" />
		</linearGradient>
		
		
			<linearGradient
   id="rect58_3_"
   gradientUnits="userSpaceOnUse"
   x1="450.21039"
   y1="1462.1799"
   x2="498.41599"
   y2="1513.46"
   gradientTransform="translate(-24.4248,-1406.4004)">
			<stop
   offset="0"
   style="stop-color:#000000;stroke:url(#linearGradient1590)"
   id="stop1399" />
			<stop
   offset="0.11"
   style="stop-color:#181C4E;stroke:url(#linearGradient1590)"
   id="stop1401" />
			<stop
   offset="0.22"
   style="stop-color:#181818;stroke:url(#linearGradient1590)"
   id="stop1403" />
			<stop
   offset="0.34"
   style="stop-color:#181C4E;stroke:url(#linearGradient1590)"
   id="stop1405" />
			<stop
   offset="0.47"
   style="stop-color:#000000;stroke:url(#linearGradient1590)"
   id="stop1407" />
			<stop
   offset="0.59"
   style="stop-color:#181C4E;stroke:url(#linearGradient1590)"
   id="stop1409" />
			<stop
   offset="0.72"
   style="stop-color:#000000;stroke:url(#linearGradient1590)"
   id="stop1411" />
			<stop
   offset="0.84"
   style="stop-color:#181C4E;stroke:url(#linearGradient1590)"
   id="stop1413" />
			<stop
   offset="0.98"
   style="stop-color:#000000;stroke:url(#linearGradient1590)"
   id="stop1415" />
		</linearGradient>
		
	
		
			<linearGradient
   id="polygon79_2_"
   gradientUnits="userSpaceOnUse"
   x1="300.49951"
   y1="1450.3645"
   x2="350.30829"
   y2="1500.1731"
   gradientTransform="translate(-24.4248,-1406.4004)">
			<stop
   offset="0"
   style="stop-color:#D9DDE9;stroke:url(#linearGradient1590)"
   id="stop1421" />
			<stop
   offset="0.39"
   style="stop-color:#777489;stroke:url(#linearGradient1590)"
   id="stop1423" />
			<stop
   offset="0.98"
   style="stop-color:#D9DDE9;stroke:url(#linearGradient1590)"
   id="stop1425" />
		</linearGradient>
		
		
			<linearGradient
   id="polygon79_3_"
   gradientUnits="userSpaceOnUse"
   x1="301.6196"
   y1="1451.4602"
   x2="349.57809"
   y2="1499.4187"
   gradientTransform="translate(-24.4248,-1406.4004)">
			<stop
   offset="0"
   style="stop-color:#000000;stroke:url(#linearGradient1590)"
   id="stop1429" />
			<stop
   offset="0.11"
   style="stop-color:#181C4E;stroke:url(#linearGradient1590)"
   id="stop1431" />
			<stop
   offset="0.22"
   style="stop-color:#181818;stroke:url(#linearGradient1590)"
   id="stop1433" />
			<stop
   offset="0.34"
   style="stop-color:#181C4E;stroke:url(#linearGradient1590)"
   id="stop1435" />
			<stop
   offset="0.47"
   style="stop-color:#000000;stroke:url(#linearGradient1590)"
   id="stop1437" />
			<stop
   offset="0.59"
   style="stop-color:#181C4E;stroke:url(#linearGradient1590)"
   id="stop1439" />
			<stop
   offset="0.72"
   style="stop-color:#000000;stroke:url(#linearGradient1590)"
   id="stop1441" />
			<stop
   offset="0.84"
   style="stop-color:#181C4E;stroke:url(#linearGradient1590)"
   id="stop1443" />
			<stop
   offset="0.98"
   style="stop-color:#000000;stroke:url(#linearGradient1590)"
   id="stop1445" />
		</linearGradient>
		
	
		
			<linearGradient
   id="polygon100_2_"
   gradientUnits="userSpaceOnUse"
   x1="141.2285"
   y1="1450.637"
   x2="190.76109"
   y2="1500.1694"
   gradientTransform="translate(-24.4248,-1406.4004)">
			<stop
   offset="0"
   style="stop-color:#D9DDE9;stroke:url(#linearGradient1590)"
   id="stop1451" />
			<stop
   offset="0.39"
   style="stop-color:#777489;stroke:url(#linearGradient1590)"
   id="stop1453" />
			<stop
   offset="0.98"
   style="stop-color:#D9DDE9;stroke:url(#linearGradient1590)"
   id="stop1455" />
		</linearGradient>
		
		
			<linearGradient
   id="polygon100_3_"
   gradientUnits="userSpaceOnUse"
   x1="142.0806"
   y1="1451.468"
   x2="190.20641"
   y2="1499.5938"
   gradientTransform="translate(-24.4248,-1406.4004)">
			<stop
   offset="0"
   style="stop-color:#000000;stroke:url(#linearGradient1590)"
   id="stop1459" />
			<stop
   offset="0.11"
   style="stop-color:#181C4E;stroke:url(#linearGradient1590)"
   id="stop1461" />
			<stop
   offset="0.22"
   style="stop-color:#181818;stroke:url(#linearGradient1590)"
   id="stop1463" />
			<stop
   offset="0.34"
   style="stop-color:#181C4E;stroke:url(#linearGradient1590)"
   id="stop1465" />
			<stop
   offset="0.47"
   style="stop-color:#000000;stroke:url(#linearGradient1590)"
   id="stop1467" />
			<stop
   offset="0.59"
   style="stop-color:#181C4E;stroke:url(#linearGradient1590)"
   id="stop1469" />
			<stop
   offset="0.72"
   style="stop-color:#000000;stroke:url(#linearGradient1590)"
   id="stop1471" />
			<stop
   offset="0.84"
   style="stop-color:#181C4E;stroke:url(#linearGradient1590)"
   id="stop1473" />
			<stop
   offset="0.98"
   style="stop-color:#000000;stroke:url(#linearGradient1590)"
   id="stop1475" />
		</linearGradient>
		
	
		
			<linearGradient
   id="polygon121_2_"
   gradientUnits="userSpaceOnUse"
   x1="64.992203"
   y1="1454.7668"
   x2="113.8675"
   y2="1503.6422"
   gradientTransform="translate(-24.4248,-1406.4004)">
			<stop
   offset="0"
   style="stop-color:#D9DDE9;stroke:url(#linearGradient1590)"
   id="stop1481" />
			<stop
   offset="0.39"
   style="stop-color:#777489;stroke:url(#linearGradient1590)"
   id="stop1483" />
			<stop
   offset="0.98"
   style="stop-color:#D9DDE9;stroke:url(#linearGradient1590)"
   id="stop1485" />
		</linearGradient>
		
		
			<linearGradient
   id="polygon121_3_"
   gradientUnits="userSpaceOnUse"
   x1="65.686996"
   y1="1455.4641"
   x2="113.1985"
   y2="1502.9756"
   gradientTransform="translate(-24.4248,-1406.4004)">
			<stop
   offset="0"
   style="stop-color:#000000;stroke:url(#linearGradient1590)"
   id="stop1489" />
			<stop
   offset="0.11"
   style="stop-color:#181C4E;stroke:url(#linearGradient1590)"
   id="stop1491" />
			<stop
   offset="0.22"
   style="stop-color:#181818;stroke:url(#linearGradient1590)"
   id="stop1493" />
			<stop
   offset="0.34"
   style="stop-color:#181C4E;stroke:url(#linearGradient1590)"
   id="stop1495" />
			<stop
   offset="0.47"
   style="stop-color:#000000;stroke:url(#linearGradient1590)"
   id="stop1497" />
			<stop
   offset="0.59"
   style="stop-color:#181C4E;stroke:url(#linearGradient1590)"
   id="stop1499" />
			<stop
   offset="0.72"
   style="stop-color:#000000;stroke:url(#linearGradient1590)"
   id="stop1501" />
			<stop
   offset="0.84"
   style="stop-color:#181C4E;stroke:url(#linearGradient1590)"
   id="stop1503" />
			<stop
   offset="0.98"
   style="stop-color:#000000;stroke:url(#linearGradient1590)"
   id="stop1505" />
		</linearGradient>
		
	
		
		
			<linearGradient
   id="polygon142_2_"
   gradientUnits="userSpaceOnUse"
   x1="350.52289"
   y1="-651.39972"
   x2="422.81589"
   y2="-651.39972"
   gradientTransform="matrix(1,0,0,-1,0.0352,-577.9663)">
			<stop
   offset="0"
   style="stop-color:#D9DDE9;stroke:url(#linearGradient1590)"
   id="stop1513" />
			<stop
   offset="0.39"
   style="stop-color:#777489;stroke:url(#linearGradient1590)"
   id="stop1515" />
			<stop
   offset="0.98"
   style="stop-color:#D9DDE9;stroke:url(#linearGradient1590)"
   id="stop1517" />
		</linearGradient>
		
		
			<linearGradient
   id="polygon142_3_"
   gradientUnits="userSpaceOnUse"
   x1="381.4263"
   y1="1450.1321"
   x2="430.44299"
   y2="1499.1486"
   gradientTransform="translate(-24.4248,-1406.4004)">
			<stop
   offset="0"
   style="stop-color:#000000;stroke:url(#linearGradient1590)"
   id="stop1521" />
			<stop
   offset="0.11"
   style="stop-color:#181C4E;stroke:url(#linearGradient1590)"
   id="stop1523" />
			<stop
   offset="0.22"
   style="stop-color:#181818;stroke:url(#linearGradient1590)"
   id="stop1525" />
			<stop
   offset="0.34"
   style="stop-color:#181C4E;stroke:url(#linearGradient1590)"
   id="stop1527" />
			<stop
   offset="0.47"
   style="stop-color:#000000;stroke:url(#linearGradient1590)"
   id="stop1529" />
			<stop
   offset="0.59"
   style="stop-color:#181C4E;stroke:url(#linearGradient1590)"
   id="stop1531" />
			<stop
   offset="0.72"
   style="stop-color:#000000;stroke:url(#linearGradient1590)"
   id="stop1533" />
			<stop
   offset="0.84"
   style="stop-color:#181C4E;stroke:url(#linearGradient1590)"
   id="stop1535" />
			<stop
   offset="0.98"
   style="stop-color:#000000;stroke:url(#linearGradient1590)"
   id="stop1537" />
		</linearGradient>
		
	
		
		
			<linearGradient
   id="polygon163_2_"
   gradientUnits="userSpaceOnUse"
   x1="491.6362"
   y1="1448.9846"
   x2="542.54639"
   y2="1499.8948"
   gradientTransform="translate(-24.4248,-1406.4004)">
			<stop
   offset="0"
   style="stop-color:#D9DDE9;stroke:url(#linearGradient1590)"
   id="stop1545" />
			<stop
   offset="0.39"
   style="stop-color:#777489;stroke:url(#linearGradient1590)"
   id="stop1547" />
			<stop
   offset="0.98"
   style="stop-color:#D9DDE9;stroke:url(#linearGradient1590)"
   id="stop1549" />
		</linearGradient>
		
		
			<linearGradient
   id="polygon163_3_"
   gradientUnits="userSpaceOnUse"
   x1="492.78171"
   y1="1450.1321"
   x2="541.79901"
   y2="1499.1493"
   gradientTransform="translate(-24.4248,-1406.4004)">
			<stop
   offset="0"
   style="stop-color:#000000;stroke:url(#linearGradient1590)"
   id="stop1553" />
			<stop
   offset="0.11"
   style="stop-color:#181C4E;stroke:url(#linearGradient1590)"
   id="stop1555" />
			<stop
   offset="0.22"
   style="stop-color:#181818;stroke:url(#linearGradient1590)"
   id="stop1557" />
			<stop
   offset="0.34"
   style="stop-color:#181C4E;stroke:url(#linearGradient1590)"
   id="stop1559" />
			<stop
   offset="0.47"
   style="stop-color:#000000;stroke:url(#linearGradient1590)"
   id="stop1561" />
			<stop
   offset="0.59"
   style="stop-color:#181C4E;stroke:url(#linearGradient1590)"
   id="stop1563" />
			<stop
   offset="0.72"
   style="stop-color:#000000;stroke:url(#linearGradient1590)"
   id="stop1565" />
			<stop
   offset="0.84"
   style="stop-color:#181C4E;stroke:url(#linearGradient1590)"
   id="stop1567" />
			<stop
   offset="0.98"
   style="stop-color:#000000;stroke:url(#linearGradient1590)"
   id="stop1569" />
		</linearGradient>
		
	</defs><sodipodi:namedview
   pagecolor="#ffffff"
   bordercolor="#666666"
   borderopacity="1"
   objecttolerance="10"
   gridtolerance="10"
   guidetolerance="10"
   inkscape:pageopacity="0"
   inkscape:pageshadow="2"
   inkscape:window-width="1280"
   inkscape:window-height="800"
   id="namedview1578"
   showgrid="false"
   inkscape:zoom="1.0133946"
   inkscape:cx="256.59941"
   inkscape:cy="46.168265"
   inkscape:window-x="0"
   inkscape:window-y="0"
   inkscape:window-maximized="0"
   inkscape:current-layer="Layer_1" />
<polygon
   points="348.343,31.721 329.321,-1 238.374,-1 219.347,31.721 34.106,31.721 -1,51.605 -1,95.259 33.88,115.018 34.108,115.145 532.825,115.145 567.675,95.404 567.929,95.259 567.929,51.607 533.056,31.853 532.827,31.721 "
   id="polygon1348"
   style="fill:none;stroke:url(#linearGradient1592)" /><path
   id="path16"
   fill="#202066"
   d="m 309.46,13.469 -7.131,21.726 h 3.521 l 7.146,-20.979 c 0.26,-0.959 1.043,-1.659 1.963,-1.659 0.931,0 1.713,0.7 1.974,1.659 l 6.041,17.746 h -9.479 v 3.232 H 327.6 l -7.132,-21.726 c -0.684,-2.396 -2.893,-4.146 -5.51,-4.146 -2.607,-10e-4 -4.812,1.749 -5.498,4.147 z m 4.178,13.492 1.248,-3.706 1.301,3.706 z m -0.517,-10.638 -6.387,18.872 h 4.117 l 2.643,-7.822 v 3.697 h 8.295 l -4.926,-14.747 c -0.25,-0.821 -0.996,-3.182 -1.873,-3.182 -0.881,0 -1.627,2.36 -1.869,3.182 z m -22.549,-2.885 h 12.344 v -3.53 h -12.639 c -3.408,0 -6.172,2.771 -6.172,6.18 v 12.936 c 0,3.409 2.764,6.172 6.172,6.172 h 12.639 v -16.47 h -9.992 v 3.234 h 6.461 v 9.702 h -8.813 c -1.627,0 -2.936,-1.315 -2.936,-2.938 v -12.35 c -0.002,-1.619 1.309,-2.936 2.936,-2.936 z m 2.351,9.406 v 3.531 h 2.055 v 0.882 h -2.055 c -0.486,0 -0.883,-0.396 -0.883,-0.882 v -7.648 c 0,-0.486 0.396,-0.883 0.883,-0.883 h 9.992 V 14.32 h -11.461 c -1.627,0 -2.945,1.316 -2.945,2.938 v 10.585 c 0,1.622 1.318,2.938 2.945,2.938 h 7.055 v -7.938 z m -22.631,-9.406 h 12.344 v -3.53 h -12.641 c -3.408,0 -6.17,2.771 -6.17,6.18 V 28.88 c 0,3.408 2.762,6.179 6.17,6.179 h 12.641 v -3.531 h -12.344 c -1.621,0 -2.938,-1.314 -2.938,-2.938 V 16.376 c 0,-1.621 1.317,-2.938 2.938,-2.938 z m 9.695,8.523 v -3.234 h -8.227 c 0,-0.486 0.395,-0.883 0.883,-0.883 h 9.992 V 14.32 h -11.461 c -1.621,0 -2.936,1.316 -2.936,2.938 v 4.703 z m 0,1.179 v 3.234 h -8.227 c 0,0.485 0.395,0.882 0.883,0.882 h 9.992 v 3.522 h -11.461 c -1.621,0 -2.936,-1.314 -2.936,-2.938 v -4.703 z m -30.203,4.407 h -7.412 v 3.233 h 11.314 0.145 c 2.123,-0.076 3.82,-1.827 3.82,-3.966 0,-2.189 -1.773,-3.972 -3.965,-3.972 h -4.459 c -1.803,-0.686 -3.334,-2.474 -3.334,-4.559 0,-2.679 2.467,-4.848 5.145,-4.848 h 11.027 V 9.907 h -11.469 c -4.541,0 -8.225,3.69 -8.225,8.233 0,4.55 3.979,8.234 8.521,8.234 v -0.038 l 0.023,0.038 h 2.625 c 0.32,0 0.586,0.259 0.586,0.586 0,0.326 -0.268,0.586 -0.586,0.586 h -3.756 z m 4.862,-9.993 h 7.42 V 14.32 h -11.316 -0.152 c -2.123,0.076 -3.818,1.827 -3.818,3.966 0,2.198 1.779,3.973 3.973,3.973 h 4.459 c 1.803,0.692 3.326,2.473 3.326,4.558 0,2.68 -2.465,4.849 -5.146,4.849 h -11.018 v 3.53 h 11.459 c 4.545,0 8.234,-3.683 8.234,-8.232 0,-4.543 -3.979,-8.234 -8.523,-8.234 v 0.046 l -0.029,-0.045 h -2.619 c -0.328,0 -0.586,-0.259 -0.586,-0.586 0,-0.319 0.258,-0.586 0.586,-0.586 z"
   style="fill:none;stroke:url(#linearGradient1598)" /><polygon
   id="polygon37"
   fill="url(#polygon37_2_)"
   points="209.429,61.171 209.429,99.606 191.86,99.606 191.86,47.433 210.161,47.433 243.101,66.173 243.101,47.433 260.669,47.433 260.669,99.606 243.101,99.606 243.101,80.333 "
   style="fill:none;stroke:url(#linearGradient1600)" /><polygon
   id="polygon37_1_"
   fill="url(#polygon37_3_)"
   points="209.903,61.45 209.903,98.649 192.83,98.649 192.83,48.156 210.614,48.156 242.626,66.29 242.626,48.156 259.698,48.156 259.698,98.649 242.626,98.649 242.626,79.995 "
   style="fill:none;stroke:url(#linearGradient1602)" /><rect
   id="rect58"
   x="433.25101"
   y="47.179001"
   fill="url(#rect58_2_)"
   width="18.261999"
   height="52.508999"
   style="fill:none;stroke:url(#linearGradient1606)" /><rect
   id="rect58_1_"
   x="433.716"
   y="48.155998"
   fill="url(#rect58_3_)"
   width="17.332001"
   height="50.558998"
   style="fill:none;stroke:url(#linearGradient1608)" /><polygon
   id="polygon79"
   fill="url(#polygon79_2_)"
   points="309.669,78.684 290.917,78.684 290.917,89.186 339.673,89.186 322.421,99.688 272.915,99.688 272.915,59.182 290.917,47.179 338.173,47.179 320.921,57.68 290.917,57.68 290.917,68.182 326.921,68.182 "
   style="fill:none;stroke:url(#linearGradient1612)" /><polygon
   id="polygon79_1_"
   fill="url(#polygon79_3_)"
   points="309.544,78.49 291.488,78.49 291.488,88.6 338.433,88.6 321.824,98.714 274.153,98.714 274.153,59.712 291.488,48.156 336.99,48.156 320.378,58.266 291.488,58.266 291.488,68.378 326.156,68.378 "
   style="fill:none;stroke:url(#linearGradient1614)" /><polygon
   id="polygon100"
   fill="url(#polygon100_2_)"
   points="150.21,78.762 131.563,78.762 131.563,89.204 180.047,89.204 162.89,99.647 113.66,99.647 113.66,59.368 131.563,47.433 178.555,47.433 161.399,57.878 131.563,57.878 131.563,68.317 167.366,68.317 "
   style="fill:none;stroke:url(#linearGradient1618)" /><polygon
   id="polygon100_1_"
   fill="url(#polygon100_3_)"
   points="150.113,78.615 131.996,78.615 131.996,88.76 179.104,88.76 162.436,98.905 114.601,98.905 114.601,59.768 131.996,48.174 177.654,48.174 160.984,58.319 131.996,58.319 131.996,68.468 166.783,68.468 "
   style="fill:none;stroke:url(#linearGradient1620)" /><polygon
   id="polygon121"
   fill="url(#polygon121_2_)"
   points="47.47,57.882 47.47,89.219 81.048,89.219 81.048,76.534 60.155,76.534 77.317,66.089 98.958,66.089 98.958,87.727 81.048,99.667 29.562,99.667 29.562,59.372 47.47,47.433 101.942,47.433 84.779,57.882 "
   style="fill:none;stroke:url(#linearGradient1624)" /><polygon
   id="polygon121_1_"
   fill="url(#polygon121_3_)"
   points="47.971,58.311 47.971,88.776 80.611,88.776 80.611,76.444 60.302,76.444 76.985,66.29 98.021,66.29 98.021,87.325 80.611,98.93 30.563,98.93 30.563,59.76 47.971,48.156 100.922,48.156 84.238,58.311 "
   style="fill:none;stroke:url(#linearGradient1626)" /><polygon
   fill="#C2C4D2"
   points="402.304,89.034 402.304,78.382 350.558,78.382 350.558,57.835 368.06,47.179 422.851,47.179 405.349,57.835 369.582,57.835 369.582,67.725 422.089,67.725 422.089,89.034 404.587,99.688 350.558,99.688 368.06,89.034 "
   id="polygon1511"
   style="fill:none;stroke:url(#linearGradient1630)" /><polygon
   id="polygon142"
   fill="url(#polygon142_2_)"
   points="368.06,47.179 422.851,47.179 405.349,57.835 369.582,57.835 369.582,67.725 422.089,67.725 422.089,89.034 404.587,99.688 350.558,99.688 368.06,89.034 402.304,89.034 402.304,78.382 350.558,78.382 350.558,57.835 "
   style="fill:none;stroke:url(#linearGradient1632)" /><polygon
   id="polygon142_1_"
   fill="url(#polygon142_3_)"
   points="368.753,48.156 421.507,48.156 404.656,58.413 370.218,58.413 370.218,67.938 420.775,67.938 420.775,88.454 403.923,98.714 351.902,98.714 368.753,88.454 401.724,88.454 401.724,78.198 351.902,78.198 351.902,58.413 "
   style="fill:none;stroke:url(#linearGradient1634)" /><polygon
   fill="#C2C4D2"
   points="513.662,89.034 513.662,78.382 461.914,78.382 461.914,57.835 479.417,47.179 534.207,47.179 516.705,57.835 480.939,57.835 480.939,67.725 533.447,67.725 533.447,89.034 515.945,99.688 461.914,99.688 479.417,89.034 "
   id="polygon1543"
   style="fill:none;stroke:url(#linearGradient1638)" /><polygon
   id="polygon163"
   fill="url(#polygon163_2_)"
   points="479.417,47.179 534.207,47.179 516.705,57.835 480.939,57.835 480.939,67.725 533.447,67.725 533.447,89.034 515.945,99.688 461.914,99.688 479.417,89.034 513.662,89.034 513.662,78.382 461.914,78.382 461.914,57.835 "
   style="fill:none;stroke:url(#linearGradient1640)" /><polygon
   id="polygon163_1_"
   fill="url(#polygon163_3_)"
   points="480.111,48.156 532.865,48.156 516.011,58.413 481.576,58.413 481.576,67.938 532.132,67.938 532.132,88.454 515.279,98.714 463.257,98.714 480.111,88.454 513.082,88.454 513.082,78.198 463.257,78.198 463.257,58.413 "
   style="fill:none;stroke:url(#linearGradient1642)" />
</svg>
