<?xml version="1.0" encoding="UTF-8" standalone="no"?>
<svg
   xmlns:dc="http://purl.org/dc/elements/1.1/"
   xmlns:cc="http://creativecommons.org/ns#"
   xmlns:rdf="http://www.w3.org/1999/02/22-rdf-syntax-ns#"
   xmlns:svg="http://www.w3.org/2000/svg"
   xmlns="http://www.w3.org/2000/svg"
   xmlns:xlink="http://www.w3.org/1999/xlink"
   xmlns:sodipodi="http://sodipodi.sourceforge.net/DTD/sodipodi-0.dtd"
   xmlns:inkscape="http://www.inkscape.org/namespaces/inkscape"
   version="1.1"
   id="Layer_2_1_"
   x="0px"
   y="0px"
   width="566.929px"
   height="129.21px"
   viewBox="0 0 566.929 129.21"
   enable-background="new 0 0 566.929 129.21"
   xml:space="preserve"
   sodipodi:docname="system.svg"
   inkscape:version="1.0.2 (e86c8708, 2021-01-15)"><metadata
     id="metadata58"><rdf:RDF><cc:Work
         rdf:about=""><dc:format>image/svg+xml</dc:format><dc:type
           rdf:resource="http://purl.org/dc/dcmitype/StillImage" /><dc:title /></cc:Work></rdf:RDF></metadata><defs
     id="defs56"><linearGradient
       inkscape:collect="always"
       id="linearGradient1046"><stop
         style="stop-color:#ff00ff;stop-opacity:1"
         offset="0"
         id="stop1042" /><stop
         style="stop-color:#0600ff;stop-opacity:1"
         offset="1"
         id="stop1044" /></linearGradient><linearGradient
       inkscape:collect="always"
       xlink:href="#linearGradient1046"
       id="linearGradient1048"
       x1="-1435.031"
       y1="601.62378"
       x2="3163.1874"
       y2="601.62378"
       gradientUnits="userSpaceOnUse" /></defs><sodipodi:namedview
     pagecolor="#ffffff"
     bordercolor="#666666"
     borderopacity="1"
     objecttolerance="10"
     gridtolerance="10"
     guidetolerance="10"
     inkscape:pageopacity="0"
     inkscape:pageshadow="2"
     inkscape:window-width="1280"
     inkscape:window-height="800"
     id="namedview54"
     showgrid="false"
     inkscape:zoom="1.1077225"
     inkscape:cx="308.39327"
     inkscape:cy="47.937459"
     inkscape:window-x="0"
     inkscape:window-y="0"
     inkscape:window-maximized="0"
     inkscape:current-layer="g5137"
     inkscape:document-rotation="0" /><g
     transform="matrix(0.10252157,0,0,0.10252157,199.56464,0.76250092)"
     id="g5137"><g
       aria-label="All Games"
       id="text1040"
       style="font-size:832.345px;line-height:1.25;font-family:'Arial Black';-inkscape-font-specification:'Arial Black, ';fill:none;stroke:url(#linearGradient1048);stroke-width:21.4589;stroke-miterlimit:4;stroke-dasharray:none"><path
         d="m -1008.2917,801.17524 h -209.7119 l -28.8557,98.35326 h -188.1717 l 223.9365,-595.80943 h 200.7707 l 223.9366,595.80943 h -192.64234 z m -38.6097,-128.83465 -65.8398,-214.18252 -65.4334,214.18252 z"
         style="font-size:832.345px;fill:none;stroke:url(#linearGradient1048);stroke-width:21.4589;stroke-miterlimit:4;stroke-dasharray:none"
         id="path1050" /><path
         d="m -733.14636,303.71907 h 165.81873 V 899.5285 h -165.81873 z"
         style="font-size:832.345px;fill:none;stroke:url(#linearGradient1048);stroke-width:21.4589;stroke-miterlimit:4;stroke-dasharray:none"
         id="path1052" /><path
         d="M -455.15612,303.71907 H -289.3374 V 899.5285 h -165.81872 z"
         style="font-size:832.345px;fill:none;stroke:url(#linearGradient1048);stroke-width:21.4589;stroke-miterlimit:4;stroke-dasharray:none"
         id="path1054" /><path
         d="M 405.63806,683.72031 V 559.76269 h 284.49291 v 254.01152 q -81.69011,55.67933 -144.68497,76.00025 -62.58844,19.9145 -148.74915,19.9145 -106.07521,0 -173.13426,-36.17124 -66.65262,-36.17124 -103.6367,-107.70088 -36.577659,-71.52965 -36.577659,-164.19306 0,-97.54042 40.235429,-169.47649 40.23542,-72.34248 117.86135,-109.73298 60.55634,-28.8557 162.97379,-28.8557 98.75968,0 147.5299,17.88241 49.17663,17.88241 81.28368,55.67932 32.51348,37.3905 48.77022,95.10192 L 504.39774,493.9229 q -10.9733,-33.73273 -37.3905,-51.61514 -26.01078,-17.88242 -66.65262,-17.88242 -60.55635,0 -96.72759,42.26752 -35.76483,41.8611 -35.76483,132.89883 0,96.72759 36.17125,138.18227 36.57766,41.45468 101.60461,41.45468 30.8878,0 58.93067,-8.9412 28.04287,-8.94121 64.21411,-30.48138 v -56.08575 z"
         style="font-size:832.345px;fill:none;stroke:url(#linearGradient1048);stroke-width:21.4589;stroke-miterlimit:4;stroke-dasharray:none"
         id="path1056" /><path
         d="M 940.07845,607.72006 781.98168,591.05691 q 8.9412,-41.45469 25.60436,-65.02696 17.06957,-23.97868 48.77021,-41.45468 22.75943,-12.59897 62.58844,-19.50808 39.82901,-6.90912 86.16071,-6.90912 74.3746,0 119.487,8.53479 45.1125,8.12837 75.1874,34.54557 21.1338,18.28883 33.3263,52.02156 12.1926,33.32631 12.1926,63.8077 v 190.61025 q 0,30.48138 3.6578,47.95737 4.0642,17.06958 17.0695,43.89319 h -155.2518 q -9.3476,-16.66315 -12.1926,-25.19794 -2.8449,-8.94121 -5.6898,-27.63645 -32.5135,31.29422 -64.6205,44.70602 -43.89324,17.88242 -102.01108,17.88242 -77.2195,0 -117.45493,-35.76483 -39.829,-35.76482 -39.829,-88.1928 0,-49.17663 28.85571,-80.87727 28.8557,-31.70064 106.48163,-47.14454 93.06982,-18.69525 120.70627,-26.01078 27.6365,-7.72195 58.5243,-19.9145 0,-30.48139 -12.599,-42.67394 -12.599,-12.19255 -44.2996,-12.19255 -40.64187,0 -60.96279,13.00539 -15.85032,10.16046 -25.60436,38.20333 z m 143.46575,86.97355 q -34.1392,12.19255 -71.1233,21.54018 -50.39585,13.4118 -63.80766,26.41719 -13.81823,13.41181 -13.81823,30.48139 0,19.50808 13.41181,32.10705 13.81823,12.19256 40.23542,12.19256 27.63646,0 51.20876,-13.41181 23.9787,-13.41181 33.7327,-32.51348 10.1605,-19.50808 10.1605,-50.39588 z"
         style="font-size:832.345px;fill:none;stroke:url(#linearGradient1048);stroke-width:21.4589;stroke-miterlimit:4;stroke-dasharray:none"
         id="path1058" /><path
         d="m 1346.4967,467.91212 h 154.439 v 62.99486 q 33.3263,-39.42259 67.059,-56.08575 34.1392,-16.66316 82.0966,-16.66316 51.6151,0 81.6901,18.28883 30.0749,18.28883 49.1766,54.46008 39.0162,-42.26752 71.1232,-57.305 32.1071,-15.44391 79.2516,-15.44391 69.4976,0 108.5138,41.45469 39.0161,41.04826 39.0161,128.83464 V 899.5285 H 1913.044 V 653.64535 q 0,-29.26213 -11.3797,-43.48678 -16.6632,-22.35301 -41.4547,-22.35301 -29.2621,0 -47.1445,21.13376 -17.8825,21.13376 -17.8825,67.87188 V 899.5285 H 1629.3639 V 661.77371 q 0,-28.44929 -3.2513,-38.60975 -5.2835,-16.25674 -18.2889,-26.01078 -13.0053,-10.16046 -30.4813,-10.16046 -28.4493,0 -46.7382,21.54018 -18.2888,21.54018 -18.2888,70.71681 V 899.5285 h -165.8187 z"
         style="font-size:832.345px;fill:none;stroke:url(#linearGradient1048);stroke-width:21.4589;stroke-miterlimit:4;stroke-dasharray:none"
         id="path1060" /><path
         d="m 2656.7897,724.76857 h -331.6374 q 4.4706,39.82901 21.5402,59.3371 23.9787,28.04287 62.5884,28.04287 24.3851,0 46.3317,-12.19256 13.4118,-7.72195 28.8557,-27.23003 l 162.9738,15.03748 q -37.3905,65.02695 -90.2249,93.47624 -52.8344,28.04288 -151.5941,28.04288 -85.7542,0 -134.9309,-23.97869 -49.1766,-24.38511 -81.6901,-76.81309 -32.107,-52.8344 -32.107,-123.95762 0,-101.1982 64.6205,-163.78664 65.0269,-62.58844 179.2305,-62.58844 92.6634,0 146.3107,28.04288 53.6472,28.04287 81.6901,81.28369 28.0428,53.24081 28.0428,138.58868 z m -168.2572,-79.25159 q -4.877,-47.95738 -26.0108,-68.68472 -20.7273,-20.72734 -54.8665,-20.72734 -39.4225,0 -62.9948,31.29422 -15.0375,19.50808 -19.1017,58.11784 z"
         style="font-size:832.345px;fill:none;stroke:url(#linearGradient1048);stroke-width:21.4589;stroke-miterlimit:4;stroke-dasharray:none"
         id="path1062" /><path
         d="m 2704.341,780.04148 164.193,-15.4439 q 10.1605,29.26213 28.4493,41.8611 18.2889,12.59897 48.7702,12.59897 33.3264,0 51.6152,-14.22464 14.2246,-10.56688 14.2246,-26.4172 0,-17.88241 -18.6952,-27.63646 -13.4118,-6.90911 -71.1232,-17.06957 -86.1608,-15.03748 -119.8935,-27.63646 -33.3263,-13.00539 -56.4921,-43.48677 -22.7595,-30.48138 -22.7595,-69.49755 0,-42.67394 24.7915,-73.56174 24.7916,-30.8878 68.2783,-45.92528 43.4868,-15.44391 116.6421,-15.44391 77.2195,0 113.7972,11.78614 36.9841,11.78613 61.3692,36.57766 24.7915,24.79152 41.0482,67.05904 l -156.8775,15.4439 q -6.0962,-20.72734 -20.3209,-30.48138 -19.5081,-13.00539 -47.1445,-13.00539 -28.0429,0 -41.0483,10.16046 -12.599,9.75404 -12.599,23.97869 0,15.85032 16.2568,23.97869 16.2567,8.12837 70.7168,14.63106 82.5029,9.34763 122.7383,26.01078 40.2355,16.66316 61.3692,47.55096 21.5402,30.8878 21.5402,67.87188 0,37.3905 -22.7594,72.7489 -22.353,35.3584 -71.1233,56.49216 -48.3637,20.72734 -132.0859,20.72734 -118.2678,0 -168.6637,-33.73273 -49.9895,-33.73273 -64.2141,-95.91475 z"
         style="font-size:832.345px;fill:none;stroke:url(#linearGradient1048);stroke-width:21.4589;stroke-miterlimit:4;stroke-dasharray:none"
         id="path1064" /></g></g></svg>
