<?xml version="1.0" encoding="UTF-8" standalone="no"?>
<svg
   xmlns:dc="http://purl.org/dc/elements/1.1/"
   xmlns:cc="http://creativecommons.org/ns#"
   xmlns:rdf="http://www.w3.org/1999/02/22-rdf-syntax-ns#"
   xmlns:svg="http://www.w3.org/2000/svg"
   xmlns="http://www.w3.org/2000/svg"
   xmlns:xlink="http://www.w3.org/1999/xlink"
   xmlns:sodipodi="http://sodipodi.sourceforge.net/DTD/sodipodi-0.dtd"
   xmlns:inkscape="http://www.inkscape.org/namespaces/inkscape"
   version="1.1"
   id="Layer_2_1_"
   x="0px"
   y="0px"
   width="566.929px"
   height="129.21px"
   viewBox="0 0 566.929 129.21"
   enable-background="new 0 0 566.929 129.21"
   xml:space="preserve"
   sodipodi:docname="system.svg"
   inkscape:version="1.0.2 (e86c8708, 2021-01-15)"><sodipodi:namedview
     pagecolor="#ffffff"
     bordercolor="#666666"
     borderopacity="1"
     objecttolerance="10"
     gridtolerance="10"
     guidetolerance="10"
     inkscape:pageopacity="0"
     inkscape:pageshadow="2"
     inkscape:window-width="1280"
     inkscape:window-height="800"
     id="namedview877"
     showgrid="false"
     inkscape:zoom="1.2135558"
     inkscape:cx="283.46451"
     inkscape:cy="64.605003"
     inkscape:window-x="0"
     inkscape:window-y="0"
     inkscape:window-maximized="0"
     inkscape:current-layer="Layer_2_1_" /><metadata
     id="metadata58"><rdf:RDF><cc:Work
         rdf:about=""><dc:format>image/svg+xml</dc:format><dc:type
           rdf:resource="http://purl.org/dc/dcmitype/StillImage" /><dc:title /></cc:Work></rdf:RDF></metadata><defs
     id="defs56"><linearGradient
       id="linearGradient7818"><stop
         style="stop-color:#ff00ff;stop-opacity:1"
         offset="0"
         id="stop7814" /><stop
         style="stop-color:#0600ff;stop-opacity:1"
         offset="1"
         id="stop7816" /></linearGradient><linearGradient
       id="linearGradient4967"><stop
         id="stop4957"
         offset="0"
         style="stop-color:#bb000f;stop-opacity:1" /><stop
         style="stop-color:#fa0211;stop-opacity:1"
         offset="0.03712977"
         id="stop4959" /><stop
         id="stop4961"
         offset="0.81084877"
         style="stop-color:#e9010c;stop-opacity:1" /><stop
         id="stop4963"
         offset="0.97940391"
         style="stop-color:#d90209;stop-opacity:1" /><stop
         id="stop4965"
         offset="1"
         style="stop-color:#c20b03;stop-opacity:1" /></linearGradient><linearGradient
       id="linearGradient4618"><stop
         style="stop-color:#bb000f;stop-opacity:1"
         offset="0"
         id="stop4608" /><stop
         id="stop4610"
         offset="0.0272118"
         style="stop-color:#fa0211;stop-opacity:1" /><stop
         style="stop-color:#e9010c;stop-opacity:1"
         offset="0.81084877"
         id="stop4612" /><stop
         style="stop-color:#d90209;stop-opacity:1"
         offset="0.97940391"
         id="stop4614" /><stop
         style="stop-color:#c20b03;stop-opacity:1"
         offset="1"
         id="stop4616" /></linearGradient><linearGradient
       id="linearGradient4882"><stop
         id="stop4872"
         offset="0"
         style="stop-color:#bb000f;stop-opacity:1" /><stop
         style="stop-color:#fa0211;stop-opacity:1"
         offset="0.01046079"
         id="stop4874" /><stop
         id="stop4876"
         offset="0.81084877"
         style="stop-color:#e9010c;stop-opacity:1" /><stop
         id="stop4878"
         offset="0.97777402"
         style="stop-color:#d90209;stop-opacity:1" /><stop
         id="stop4880"
         offset="1"
         style="stop-color:#c20b03;stop-opacity:1" /></linearGradient><linearGradient
       id="linearGradient4759"><stop
         style="stop-color:#bb000f;stop-opacity:1"
         offset="0"
         id="stop4751" /><stop
         id="stop4753"
         offset="0.0448401"
         style="stop-color:#fa0211;stop-opacity:1" /><stop
         style="stop-color:#e9010c;stop-opacity:1"
         offset="0.81084877"
         id="stop4761" /><stop
         style="stop-color:#d90209;stop-opacity:1"
         offset="0.97777402"
         id="stop4755" /><stop
         style="stop-color:#c20b03;stop-opacity:1"
         offset="1"
         id="stop4757" /></linearGradient><linearGradient
       id="linearGradient5243"><stop
         id="stop5235"
         offset="0"
         style="stop-color:#830505;stop-opacity:1" /><stop
         style="stop-color:#ff0000;stop-opacity:1"
         offset="0.0448401"
         id="stop5237" /><stop
         id="stop5239"
         offset="0.97301853"
         style="stop-color:#ff0000;stop-opacity:1" /><stop
         id="stop5241"
         offset="1"
         style="stop-color:#cc0202;stop-opacity:1" /></linearGradient><linearGradient
       xlink:href="#linearGradient5243"
       id="linearGradient6916-7"
       gradientUnits="userSpaceOnUse"
       x1="49.82795"
       y1="274.51959"
       x2="49.844654"
       y2="300.68921"
       gradientTransform="matrix(3.983499,0.06557266,-0.06557266,3.983499,-147.85864,-1098.3819)" /><linearGradient
       xlink:href="#linearGradient4759"
       id="linearGradient6916-5"
       gradientUnits="userSpaceOnUse"
       x1="49.82795"
       y1="274.51959"
       x2="50.97065"
       y2="300.46671"
       gradientTransform="matrix(3.983499,0.06557266,-0.06557266,3.983499,-147.85864,-1098.3819)" /><linearGradient
       xlink:href="#linearGradient4882"
       id="linearGradient6916-4"
       gradientUnits="userSpaceOnUse"
       x1="50.717438"
       y1="275.1796"
       x2="50.97065"
       y2="300.46671"
       gradientTransform="matrix(3.983499,0.06557266,-0.06557266,3.983499,-147.85864,-1098.3819)" /><linearGradient
       xlink:href="#linearGradient4618"
       id="linearGradient4606-3"
       gradientUnits="userSpaceOnUse"
       gradientTransform="matrix(3.983499,0.06557266,-0.06557266,3.983499,-254.16548,-1096.6012)"
       x1="79.178467"
       y1="273.98257"
       x2="79.617294"
       y2="300.64111" /><linearGradient
       xlink:href="#linearGradient4618"
       id="linearGradient4606-7"
       gradientUnits="userSpaceOnUse"
       gradientTransform="matrix(3.983499,0.06557266,-0.06557266,3.983499,-336.82499,-1097.7776)"
       x1="79.178467"
       y1="273.98257"
       x2="79.617294"
       y2="300.64111" /><linearGradient
       xlink:href="#linearGradient4967"
       id="linearGradient4858-4"
       gradientUnits="userSpaceOnUse"
       gradientTransform="matrix(3.983499,0.06557266,-0.06557266,3.983499,-466.58711,-1095.9851)"
       x1="129.36295"
       y1="273.69464"
       x2="132.593"
       y2="299.17285" /><linearGradient
       xlink:href="#linearGradient7818"
       id="linearGradient7820"
       x1="14.676768"
       y1="64.399567"
       x2="559.36427"
       y2="64.399567"
       gradientUnits="userSpaceOnUse"
       gradientTransform="matrix(1.072742,0,0,1.0727419,-4.5076482,-8.0702296)" /></defs><g
     aria-label="Favourites"
     transform="scale(0.93181716,1.0731719)"
     id="text7812"
     style="font-style:normal;font-weight:normal;font-size:102.983px;line-height:1.25;font-family:sans-serif;fill:none;fill-opacity:1;stroke:url(#linearGradient7820);stroke-width:3.21823;stroke-miterlimit:4;stroke-dasharray:none"><path
       d="M 11.23672,23.52674 H 67.55555 V 39.366411 H 34.116245 V 52.239286 H 62.677937 V 67.123548 H 34.116245 V 97.244064 H 11.23672 Z"
       style="font-style:normal;font-variant:normal;font-weight:normal;font-stretch:normal;font-size:102.983px;font-family:'Arial Black';-inkscape-font-specification:'Arial Black, ';fill:none;stroke:url(#linearGradient7820);stroke-width:3.21823;stroke-miterlimit:4;stroke-dasharray:none"
       id="path879" /><path
       d="M 97.223506,61.139672 77.66277,59.078001 q 1.106262,-5.129037 3.167934,-8.045547 2.111956,-2.966796 6.03416,-5.129037 2.815942,-1.558824 7.743839,-2.413664 4.927898,-0.854839 10.660347,-0.854839 9.2021,0 14.7837,1.055978 5.58159,1.005693 9.30266,4.274197 2.6148,2.26281 4.12334,6.436438 1.50854,4.123342 1.50854,7.894693 v 23.583509 q 0,3.77135 0.45256,5.933591 0.50285,2.111956 2.11196,5.430744 h -19.20874 q -1.15655,-2.061671 -1.50854,-3.117649 -0.352,-1.106263 -0.70399,-3.419358 -4.02277,3.87192 -7.99526,5.531314 -5.43075,2.212525 -12.621453,2.212525 -9.554087,0 -14.532269,-4.42505 -4.927898,-4.425051 -4.927898,-10.911774 0,-6.084445 3.570212,-10.006649 3.570211,-3.922204 13.174583,-5.833021 11.515185,-2.313095 14.934545,-3.218219 3.41936,-0.955409 7.24099,-2.463949 0,-3.77135 -1.55882,-5.27989 -1.55883,-1.50854 -5.48103,-1.50854 -5.02847,0 -7.5427,1.609109 -1.961102,1.257117 -3.167934,4.726759 z m 17.750484,10.760919 q -4.22391,1.50854 -8.79981,2.665088 -6.235302,1.659394 -7.894696,3.268503 -1.709679,1.659394 -1.709679,3.77135 0,2.413664 1.659394,3.972489 1.709679,1.50854 4.978181,1.50854 3.41936,0 6.33587,-1.659394 2.9668,-1.659394 4.17363,-4.022773 1.25711,-2.413664 1.25711,-6.235299 z"
       style="font-style:normal;font-variant:normal;font-weight:normal;font-stretch:normal;font-size:102.983px;font-family:'Arial Black';-inkscape-font-specification:'Arial Black, ';fill:none;stroke:url(#linearGradient7820);stroke-width:3.21823;stroke-miterlimit:4;stroke-dasharray:none"
       id="path881" /><path
       d="m 141.27288,43.841746 h 21.3207 l 10.35864,33.841582 10.71063,-33.841582 h 20.667 L 181.65147,97.244064 H 163.4987 Z"
       style="font-style:normal;font-variant:normal;font-weight:normal;font-stretch:normal;font-size:102.983px;font-family:'Arial Black';-inkscape-font-specification:'Arial Black, ';fill:none;stroke:url(#linearGradient7820);stroke-width:3.21823;stroke-miterlimit:4;stroke-dasharray:none"
       id="path883" /><path
       d="m 207.79949,70.693759 q 0,-12.219174 8.24669,-20.113867 8.24669,-7.944978 22.27611,-7.944978 16.04081,0 24.23721,9.302664 6.58729,7.492415 6.58729,18.454473 0,12.319744 -8.1964,20.214437 -8.14612,7.844408 -22.57782,7.844408 -12.87287,0 -20.81785,-6.537007 -9.75523,-8.095831 -9.75523,-21.22013 z m 20.51615,-0.05028 q 0,7.140423 2.86623,10.55978 2.91651,3.419357 7.29127,3.419357 4.42505,0 7.24099,-3.369072 2.86623,-3.369073 2.86623,-10.811204 0,-6.939284 -2.86623,-10.308357 -2.86622,-3.419358 -7.09013,-3.419358 -4.47534,0 -7.39185,3.469642 -2.91651,3.419358 -2.91651,10.459212 z"
       style="font-style:normal;font-variant:normal;font-weight:normal;font-stretch:normal;font-size:102.983px;font-family:'Arial Black';-inkscape-font-specification:'Arial Black, ';fill:none;stroke:url(#linearGradient7820);stroke-width:3.21823;stroke-miterlimit:4;stroke-dasharray:none"
       id="path885" /><path
       d="m 335.37172,97.244064 h -19.10818 v -8.648963 q -4.27419,5.330175 -8.64896,7.592985 -4.32448,2.26281 -10.66035,2.26281 -8.44782,0 -13.27515,-5.028466 -4.77705,-5.078752 -4.77705,-15.588248 V 43.841746 h 20.56643 v 29.366247 q 0,5.028467 1.86054,7.140423 1.86053,2.111956 5.2296,2.111956 3.67078,0 5.98388,-2.815942 2.36338,-2.815941 2.36338,-10.107218 V 43.841746 h 20.46586 z"
       style="font-style:normal;font-variant:normal;font-weight:normal;font-stretch:normal;font-size:102.983px;font-family:'Arial Black';-inkscape-font-specification:'Arial Black, ';fill:none;stroke:url(#linearGradient7820);stroke-width:3.21823;stroke-miterlimit:4;stroke-dasharray:none"
       id="path887" /><path
       d="m 348.09374,43.841746 h 19.15846 v 8.749532 q 2.76566,-5.682167 5.68217,-7.794123 2.96679,-2.162241 7.29127,-2.162241 4.52562,0 9.90608,2.815941 l -6.33587,14.582554 q -3.62049,-1.50854 -5.73245,-1.50854 -4.02277,0 -6.2353,3.318788 -3.16793,4.676475 -3.16793,17.499065 v 17.901342 h -20.56643 z"
       style="font-style:normal;font-variant:normal;font-weight:normal;font-stretch:normal;font-size:102.983px;font-family:'Arial Black';-inkscape-font-specification:'Arial Black, ';fill:none;stroke:url(#linearGradient7820);stroke-width:3.21823;stroke-miterlimit:4;stroke-dasharray:none"
       id="path889" /><path
       d="m 394.30532,23.52674 h 20.46586 v 13.928853 h -20.46586 z m 0,20.315006 h 20.46586 v 53.402318 h -20.46586 z"
       style="font-style:normal;font-variant:normal;font-weight:normal;font-stretch:normal;font-size:102.983px;font-family:'Arial Black';-inkscape-font-specification:'Arial Black, ';fill:none;stroke:url(#linearGradient7820);stroke-width:3.21823;stroke-miterlimit:4;stroke-dasharray:none"
       id="path891" /><path
       d="m 452.63553,23.52674 v 20.315006 h 11.26377 v 14.934547 h -11.26377 v 18.95732 q 0,3.419357 0.65371,4.52562 1.00569,1.709679 3.51992,1.709679 2.26281,0 6.33587,-1.307402 l 1.50854,14.129992 q -7.59298,1.659394 -14.18028,1.659394 -7.64327,0 -11.26376,-1.961102 -3.6205,-1.961102 -5.38046,-5.933591 -1.70968,-4.022773 -1.70968,-12.973444 V 58.776293 h -7.5427 V 43.841746 h 7.5427 v -9.80551 z"
       style="font-style:normal;font-variant:normal;font-weight:normal;font-stretch:normal;font-size:102.983px;font-family:'Arial Black';-inkscape-font-specification:'Arial Black, ';fill:none;stroke:url(#linearGradient7820);stroke-width:3.21823;stroke-miterlimit:4;stroke-dasharray:none"
       id="path893" /><path
       d="m 532.8899,75.621657 h -41.03229 q 0.55313,4.927897 2.66508,7.341561 2.9668,3.469643 7.74384,3.469643 3.01708,0 5.73245,-1.508541 1.6594,-0.955408 3.57022,-3.369072 l 20.16415,1.860532 q -4.62619,8.045547 -11.1632,11.565474 -6.53701,3.469642 -18.75618,3.469642 -10.61007,0 -16.69451,-2.966795 -6.08445,-3.01708 -10.10722,-9.503802 -3.97249,-6.537007 -3.97249,-15.336824 0,-12.520883 7.99526,-20.264722 8.04555,-7.743839 22.17554,-7.743839 11.46491,0 18.10248,3.469642 6.63758,3.469642 10.10722,10.056934 3.46965,6.587292 3.46965,17.147072 z m -20.81786,-9.805511 q -0.60341,-5.933591 -3.21822,-8.498109 -2.56451,-2.564518 -6.78843,-2.564518 -4.87761,0 -7.79412,3.87192 -1.86053,2.413664 -2.36338,7.190707 z"
       style="font-style:normal;font-variant:normal;font-weight:normal;font-stretch:normal;font-size:102.983px;font-family:'Arial Black';-inkscape-font-specification:'Arial Black, ';fill:none;stroke:url(#linearGradient7820);stroke-width:3.21823;stroke-miterlimit:4;stroke-dasharray:none"
       id="path895" /><path
       d="m 538.7732,82.460372 20.31501,-1.910818 q 1.25712,3.620496 3.51993,5.179321 2.26281,1.558825 6.03416,1.558825 4.12334,0 6.38615,-1.759964 1.75996,-1.307401 1.75996,-3.268503 0,-2.212525 -2.31309,-3.419357 -1.6594,-0.85484 -8.79982,-2.111957 -10.66035,-1.860532 -14.83398,-3.419357 -4.12334,-1.609109 -6.98957,-5.38046 -2.81594,-3.77135 -2.81594,-8.598678 0,-5.27989 3.06737,-9.101525 3.06736,-3.821635 8.44782,-5.682168 5.38046,-1.910817 14.4317,-1.910817 9.55409,0 14.07971,1.458255 4.5759,1.458256 7.59298,4.525621 3.06737,3.067364 5.07876,8.29697 l -19.40989,1.910817 q -0.75427,-2.564518 -2.51423,-3.77135 -2.41366,-1.609109 -5.83302,-1.609109 -3.46964,0 -5.07875,1.257117 -1.55883,1.206832 -1.55883,2.966795 0,1.961102 2.01139,2.966795 2.01139,1.005694 8.74953,1.810249 10.20779,1.156547 15.18597,3.218218 4.97818,2.061672 7.59299,5.883307 2.66508,3.821634 2.66508,8.397539 0,4.62619 -2.81594,9.000956 -2.76565,4.374766 -8.79981,6.989569 -5.98388,2.564518 -16.34252,2.564518 -14.63284,0 -20.86814,-4.173627 -6.18501,-4.173628 -7.94498,-11.867182 z"
       style="font-style:normal;font-variant:normal;font-weight:normal;font-stretch:normal;font-size:102.983px;font-family:'Arial Black';-inkscape-font-specification:'Arial Black, ';fill:none;stroke:url(#linearGradient7820);stroke-width:3.21823;stroke-miterlimit:4;stroke-dasharray:none"
       id="path897" /></g></svg>
