<?xml version="1.0" encoding="UTF-8" standalone="no"?>
<svg
   xmlns:ns0="&amp;ns_sfw;"
   xmlns:dc="http://purl.org/dc/elements/1.1/"
   xmlns:cc="http://creativecommons.org/ns#"
   xmlns:rdf="http://www.w3.org/1999/02/22-rdf-syntax-ns#"
   xmlns:svg="http://www.w3.org/2000/svg"
   xmlns="http://www.w3.org/2000/svg"
   xmlns:xlink="http://www.w3.org/1999/xlink"
   xmlns:sodipodi="http://sodipodi.sourceforge.net/DTD/sodipodi-0.dtd"
   xmlns:inkscape="http://www.inkscape.org/namespaces/inkscape"
   version="1.2"
   id="Layer_2"
   x="0px"
   y="0px"
   width="570.15497"
   height="103.826"
   viewBox="15.349 117.018 570.15498 103.82601"
   xml:space="preserve"
   sodipodi:docname="system.svg"
   inkscape:version="1.0.2 (e86c8708, 2021-01-15)"><defs
   id="defs2763"><linearGradient
     inkscape:collect="always"
     id="linearGradient3368"><stop
       style="stop-color:#ff00ff;stop-opacity:1"
       offset="0"
       id="stop3364" /><stop
       style="stop-color:#0600ff;stop-opacity:1"
       offset="1"
       id="stop3366" /></linearGradient><linearGradient
     inkscape:collect="always"
     xlink:href="#linearGradient3368"
     id="linearGradient3370"
     x1="15.348"
     y1="167.431"
     x2="582.50299"
     y2="167.431"
     gradientUnits="userSpaceOnUse" /><linearGradient
     inkscape:collect="always"
     xlink:href="#linearGradient3368"
     id="linearGradient3372"
     gradientUnits="userSpaceOnUse"
     x1="15.348"
     y1="167.431"
     x2="582.50299"
     y2="167.431" /><linearGradient
     inkscape:collect="always"
     xlink:href="#linearGradient3368"
     id="linearGradient3374"
     gradientUnits="userSpaceOnUse"
     x1="15.348"
     y1="167.431"
     x2="582.50299"
     y2="167.431" /><linearGradient
     inkscape:collect="always"
     xlink:href="#linearGradient3368"
     id="linearGradient3376"
     gradientUnits="userSpaceOnUse"
     x1="15.348"
     y1="167.431"
     x2="582.50299"
     y2="167.431" /><linearGradient
     inkscape:collect="always"
     xlink:href="#linearGradient3368"
     id="linearGradient3378"
     gradientUnits="userSpaceOnUse"
     x1="15.348"
     y1="167.431"
     x2="582.50299"
     y2="167.431" /><linearGradient
     inkscape:collect="always"
     xlink:href="#linearGradient3368"
     id="linearGradient3380"
     gradientUnits="userSpaceOnUse"
     x1="15.348"
     y1="167.431"
     x2="582.50299"
     y2="167.431" /><linearGradient
     inkscape:collect="always"
     xlink:href="#linearGradient3368"
     id="linearGradient3382"
     gradientUnits="userSpaceOnUse"
     x1="15.348"
     y1="167.431"
     x2="582.50299"
     y2="167.431" /><linearGradient
     inkscape:collect="always"
     xlink:href="#linearGradient3368"
     id="linearGradient3384"
     gradientUnits="userSpaceOnUse"
     x1="15.348"
     y1="167.431"
     x2="582.50299"
     y2="167.431" /><linearGradient
     inkscape:collect="always"
     xlink:href="#linearGradient3368"
     id="linearGradient3386"
     gradientUnits="userSpaceOnUse"
     x1="15.348"
     y1="167.431"
     x2="582.50299"
     y2="167.431" /><linearGradient
     inkscape:collect="always"
     xlink:href="#linearGradient3368"
     id="linearGradient3388"
     gradientUnits="userSpaceOnUse"
     x1="15.348"
     y1="167.431"
     x2="582.50299"
     y2="167.431" /><linearGradient
     inkscape:collect="always"
     xlink:href="#linearGradient3368"
     id="linearGradient3390"
     gradientUnits="userSpaceOnUse"
     x1="15.348"
     y1="167.431"
     x2="582.50299"
     y2="167.431" /><linearGradient
     inkscape:collect="always"
     xlink:href="#linearGradient3368"
     id="linearGradient3392"
     gradientUnits="userSpaceOnUse"
     x1="15.348"
     y1="167.431"
     x2="582.50299"
     y2="167.431" /><linearGradient
     inkscape:collect="always"
     xlink:href="#linearGradient3368"
     id="linearGradient3394"
     gradientUnits="userSpaceOnUse"
     x1="15.348"
     y1="167.431"
     x2="582.50299"
     y2="167.431" /><linearGradient
     inkscape:collect="always"
     xlink:href="#linearGradient3368"
     id="linearGradient3396"
     gradientUnits="userSpaceOnUse"
     x1="15.348"
     y1="167.431"
     x2="582.50299"
     y2="167.431" /><linearGradient
     inkscape:collect="always"
     xlink:href="#linearGradient3368"
     id="linearGradient3398"
     gradientUnits="userSpaceOnUse"
     x1="15.348"
     y1="167.431"
     x2="582.50299"
     y2="167.431" /><linearGradient
     inkscape:collect="always"
     xlink:href="#linearGradient3368"
     id="linearGradient3400"
     gradientUnits="userSpaceOnUse"
     x1="15.348"
     y1="167.431"
     x2="582.50299"
     y2="167.431" /><linearGradient
     inkscape:collect="always"
     xlink:href="#linearGradient3368"
     id="linearGradient3402"
     gradientUnits="userSpaceOnUse"
     x1="15.348"
     y1="167.431"
     x2="582.50299"
     y2="167.431" /><linearGradient
     inkscape:collect="always"
     xlink:href="#linearGradient3368"
     id="linearGradient3404"
     gradientUnits="userSpaceOnUse"
     x1="15.348"
     y1="167.431"
     x2="582.50299"
     y2="167.431" /><linearGradient
     inkscape:collect="always"
     xlink:href="#linearGradient3368"
     id="linearGradient3406"
     gradientUnits="userSpaceOnUse"
     x1="15.348"
     y1="167.431"
     x2="582.50299"
     y2="167.431" /><linearGradient
     inkscape:collect="always"
     xlink:href="#linearGradient3368"
     id="linearGradient3408"
     gradientUnits="userSpaceOnUse"
     x1="15.348"
     y1="167.431"
     x2="582.50299"
     y2="167.431" /><linearGradient
     inkscape:collect="always"
     xlink:href="#linearGradient3368"
     id="linearGradient3410"
     gradientUnits="userSpaceOnUse"
     x1="15.348"
     y1="167.431"
     x2="582.50299"
     y2="167.431" /><linearGradient
     inkscape:collect="always"
     xlink:href="#linearGradient3368"
     id="linearGradient3412"
     gradientUnits="userSpaceOnUse"
     x1="15.348"
     y1="167.431"
     x2="582.50299"
     y2="167.431" /><linearGradient
     inkscape:collect="always"
     xlink:href="#linearGradient3368"
     id="linearGradient3414"
     gradientUnits="userSpaceOnUse"
     x1="15.348"
     y1="167.431"
     x2="582.50299"
     y2="167.431" /><linearGradient
     inkscape:collect="always"
     xlink:href="#linearGradient3368"
     id="linearGradient3416"
     gradientUnits="userSpaceOnUse"
     x1="15.348"
     y1="167.431"
     x2="582.50299"
     y2="167.431" /><linearGradient
     inkscape:collect="always"
     xlink:href="#linearGradient3368"
     id="linearGradient3418"
     gradientUnits="userSpaceOnUse"
     x1="15.348"
     y1="167.431"
     x2="582.50299"
     y2="167.431" /><linearGradient
     inkscape:collect="always"
     xlink:href="#linearGradient3368"
     id="linearGradient3420"
     gradientUnits="userSpaceOnUse"
     x1="15.348"
     y1="167.431"
     x2="582.50299"
     y2="167.431" /><linearGradient
     inkscape:collect="always"
     xlink:href="#linearGradient3368"
     id="linearGradient3422"
     gradientUnits="userSpaceOnUse"
     x1="15.348"
     y1="167.431"
     x2="582.50299"
     y2="167.431" /><linearGradient
     inkscape:collect="always"
     xlink:href="#linearGradient3368"
     id="linearGradient3424"
     gradientUnits="userSpaceOnUse"
     x1="15.348"
     y1="167.431"
     x2="582.50299"
     y2="167.431" /><linearGradient
     inkscape:collect="always"
     xlink:href="#linearGradient3368"
     id="linearGradient3426"
     gradientUnits="userSpaceOnUse"
     x1="15.348"
     y1="167.431"
     x2="582.50299"
     y2="167.431" /><linearGradient
     inkscape:collect="always"
     xlink:href="#linearGradient3368"
     id="linearGradient3428"
     gradientUnits="userSpaceOnUse"
     x1="15.348"
     y1="167.431"
     x2="582.50299"
     y2="167.431" /><linearGradient
     inkscape:collect="always"
     xlink:href="#linearGradient3368"
     id="linearGradient3430"
     gradientUnits="userSpaceOnUse"
     x1="15.348"
     y1="167.431"
     x2="582.50299"
     y2="167.431" /><linearGradient
     inkscape:collect="always"
     xlink:href="#linearGradient3368"
     id="linearGradient3432"
     gradientUnits="userSpaceOnUse"
     x1="15.348"
     y1="167.431"
     x2="582.50299"
     y2="167.431" /><linearGradient
     inkscape:collect="always"
     xlink:href="#linearGradient3368"
     id="linearGradient3434"
     gradientUnits="userSpaceOnUse"
     x1="15.348"
     y1="167.431"
     x2="582.50299"
     y2="167.431" /><linearGradient
     inkscape:collect="always"
     xlink:href="#linearGradient3368"
     id="linearGradient3436"
     gradientUnits="userSpaceOnUse"
     x1="15.348"
     y1="167.431"
     x2="582.50299"
     y2="167.431" /><linearGradient
     inkscape:collect="always"
     xlink:href="#linearGradient3368"
     id="linearGradient3438"
     gradientUnits="userSpaceOnUse"
     x1="15.348"
     y1="167.431"
     x2="582.50299"
     y2="167.431" /><linearGradient
     inkscape:collect="always"
     xlink:href="#linearGradient3368"
     id="linearGradient3440"
     gradientUnits="userSpaceOnUse"
     x1="15.348"
     y1="167.431"
     x2="582.50299"
     y2="167.431" /><linearGradient
     inkscape:collect="always"
     xlink:href="#linearGradient3368"
     id="linearGradient3442"
     gradientUnits="userSpaceOnUse"
     x1="15.348"
     y1="167.431"
     x2="582.50299"
     y2="167.431" /></defs><sodipodi:namedview
   pagecolor="#ffffff"
   bordercolor="#666666"
   borderopacity="1"
   objecttolerance="10"
   gridtolerance="10"
   guidetolerance="10"
   inkscape:pageopacity="0"
   inkscape:pageshadow="2"
   inkscape:window-width="1280"
   inkscape:window-height="800"
   id="namedview2761"
   showgrid="false"
   lock-margins="true"
   fit-margin-top="1"
   fit-margin-left="1"
   fit-margin-right="1"
   fit-margin-bottom="1"
   inkscape:zoom="0.90352122"
   inkscape:cx="313.69775"
   inkscape:cy="84.425483"
   inkscape:window-x="0"
   inkscape:window-y="0"
   inkscape:window-maximized="0"
   inkscape:current-layer="Layer_2" />
<metadata
   id="metadata2686">
	<ns0:sfw>
		<ns0:slices />
		<ns0:sliceSourceBounds
   height="100.826"
   width="567.154"
   y="496.785"
   x="676.753"
   bottomLeftOrigin="true" />
	</ns0:sfw>
<rdf:RDF><cc:Work
     rdf:about=""><dc:format>image/svg+xml</dc:format><dc:type
       rdf:resource="http://purl.org/dc/dcmitype/StillImage" /><dc:title></dc:title></cc:Work></rdf:RDF></metadata>

















<g
   id="g3362"
   style="fill:none;stroke:url(#linearGradient3370)"
   transform="translate(1.501,1.5000023)"><g
     id="g2708"
     style="fill:none;stroke:url(#linearGradient3392)">
	<path
   fill="#706365"
   d="m 176.916,152.213 c 1.66,1.15 2.906,2.396 3.737,3.736 0.894,1.598 1.437,3.386 1.629,5.365 v 44.169 c 0,2.684 -0.495,4.775 -1.485,6.277 -0.99,1.5 -2.093,2.697 -3.306,3.592 -1.405,1.021 -3.002,1.725 -4.79,2.107 h -29.798 v -67.165 h 26.923 c 3.067,0.131 5.43,0.769 7.09,1.919 z m 2.108,8.91 c -0.191,-1.404 -0.606,-2.682 -1.245,-3.832 -0.512,-0.958 -1.31,-1.836 -2.396,-2.635 -1.086,-0.799 -2.556,-1.134 -4.407,-1.007 l -25.008,0.096 v 60.649 h 25.391 c 1.341,-0.254 2.555,-0.701 3.641,-1.34 0.895,-0.512 1.757,-1.277 2.587,-2.301 0.83,-1.021 1.31,-2.426 1.438,-4.215 v -45.415 z m -14.084,3.881 c 0.574,0.543 1.021,1.134 1.341,1.772 0.319,0.703 0.511,1.501 0.575,2.395 v 27.786 c 0.063,1.598 -0.08,2.828 -0.432,3.689 -0.352,0.863 -0.782,1.484 -1.293,1.867 -0.575,0.512 -1.214,0.799 -1.916,0.863 h -5.749 l -0.191,-39.379 h 5.174 c 1.086,0.129 1.916,0.464 2.491,1.007 z m -1.15,4.167 c -0.128,-0.51 -0.319,-0.925 -0.574,-1.245 -0.575,-0.702 -1.565,-0.894 -2.971,-0.575 v 32.959 c 0.574,0.191 1.117,0.256 1.629,0.191 0.447,-0.063 0.846,-0.254 1.197,-0.574 0.352,-0.318 0.591,-0.926 0.719,-1.82 z"
   id="path2688"
   style="fill:none;stroke:url(#linearGradient3372)" />
	<path
   fill="#706365"
   d="m 205.086,150.584 v 66.685 h -18.588 v -66.685 z m -3.258,3.832 h -12.264 v 59.212 h 12.264 z"
   id="path2690"
   style="fill:none;stroke:url(#linearGradient3374)" />
	<path
   fill="#706365"
   d="m 229.519,172.429 v -2.778 c 0.063,-1.277 -0.224,-2.044 -0.862,-2.3 -0.256,-0.127 -0.607,-0.127 -1.054,0 -0.512,0 -0.879,0.112 -1.103,0.336 -0.224,0.224 -0.367,0.495 -0.431,0.814 -0.129,0.319 -0.129,0.702 0,1.149 v 3.641 l 14.755,9.582 c 1.852,1.021 3.273,2.107 4.264,3.258 0.991,1.151 1.677,2.236 2.06,3.258 0.447,1.15 0.671,2.363 0.671,3.641 v 14.658 c -0.128,2.109 -0.671,3.818 -1.629,5.127 -0.958,1.311 -2.044,2.316 -3.258,3.018 -1.405,0.83 -2.97,1.438 -4.694,1.82 h -19.354 c -2.428,-0.064 -4.328,-0.67 -5.701,-1.82 -1.373,-1.148 -2.379,-2.363 -3.018,-3.641 -0.767,-1.533 -1.246,-3.258 -1.438,-5.174 v -21.846 l 17.438,10.637 v 3.736 c 0,0.574 0.079,1.006 0.239,1.293 0.159,0.287 0.367,0.496 0.623,0.623 0.255,0.191 0.574,0.287 0.958,0.287 0.958,-0.064 1.501,-0.447 1.629,-1.15 0.063,-0.254 0.031,-0.605 -0.096,-1.053 v -4.408 l -12.743,-7.664 c -2.236,-1.213 -3.913,-2.508 -5.03,-3.881 -1.118,-1.373 -1.933,-2.604 -2.443,-3.689 -0.575,-1.277 -0.862,-2.555 -0.862,-3.832 v -15.713 c 0.127,-2.427 0.702,-4.311 1.725,-5.652 1.021,-1.342 2.172,-2.332 3.449,-2.971 1.469,-0.702 3.098,-1.117 4.887,-1.245 h 17.15 c 2.938,0.128 5.205,0.671 6.803,1.629 1.597,0.958 2.811,2.044 3.641,3.257 0.895,1.406 1.469,2.971 1.725,4.695 v 24.432 z m -1.534,-8.335 c 1.021,0.128 1.805,0.367 2.348,0.719 0.543,0.352 0.974,0.75 1.293,1.197 0.319,0.512 0.543,1.086 0.671,1.725 v 2.778 l 12.456,7.473 -0.192,-16.383 c 0.063,-1.66 -0.304,-3.018 -1.102,-4.072 -0.799,-1.054 -1.677,-1.868 -2.635,-2.443 -1.15,-0.702 -2.46,-1.149 -3.929,-1.342 h -18.587 c -1.47,0.129 -2.62,0.528 -3.45,1.198 -0.83,0.671 -1.469,1.357 -1.916,2.06 -0.512,0.895 -0.862,1.854 -1.054,2.875 V 175.4 c -0.064,1.278 0.191,2.395 0.767,3.354 0.574,0.957 1.213,1.787 1.916,2.49 0.767,0.83 1.693,1.564 2.779,2.203 l 15.713,10.156 v 6.229 c 0,1.213 -0.256,2.156 -0.767,2.826 -0.512,0.672 -1.086,1.166 -1.725,1.484 -0.703,0.385 -1.533,0.641 -2.491,0.768 -1.214,-0.127 -2.14,-0.398 -2.778,-0.814 -0.639,-0.414 -1.118,-0.877 -1.438,-1.389 -0.384,-0.574 -0.64,-1.246 -0.767,-2.014 v -3.064 l -11.21,-6.707 -0.191,15.713 c 0.063,1.852 0.463,3.273 1.197,4.264 0.734,0.991 1.549,1.74 2.443,2.252 1.021,0.574 2.203,0.926 3.545,1.053 h 18.684 c 1.852,-0.063 3.241,-0.479 4.168,-1.244 0.926,-0.768 1.612,-1.598 2.06,-2.492 0.511,-1.086 0.767,-2.299 0.767,-3.641 V 192.55 c 0.063,-0.768 -0.128,-1.533 -0.575,-2.301 -0.447,-0.766 -0.958,-1.436 -1.532,-2.012 -0.703,-0.703 -1.47,-1.373 -2.3,-2.012 l -17.055,-11.019 v -7.09 c 0.063,-1.086 0.367,-1.884 0.91,-2.395 0.543,-0.511 1.102,-0.895 1.677,-1.15 0.704,-0.254 1.47,-0.413 2.3,-0.477 z"
   id="path2692"
   style="fill:none;stroke:url(#linearGradient3376)" />
	<path
   fill="#706365"
   d="m 288.923,175.687 -6.898,7.951 6.898,8.432 v 25.199 h -17.726 v -18.588 l -2.491,-2.299 v 21.078 h -17.917 v -66.972 h 17.917 v 21.078 l 2.491,-2.97 v -18.108 h 17.726 z m -3.067,-21.367 h -11.114 l -0.096,16.001 -9.007,9.198 -0.383,-25.582 h -11.21 v 59.595 h 11.114 v -24.721 l 8.719,8.24 v 16.576 h 11.785 v -21.174 l -7.569,-8.816 7.761,-9.005 z"
   id="path2694"
   style="fill:none;stroke:url(#linearGradient3378)" />
	<path
   fill="#706365"
   d="m 340.949,172.429 v -2.778 c 0.064,-1.277 -0.223,-2.044 -0.861,-2.3 -0.256,-0.127 -0.607,-0.127 -1.055,0 -0.512,0 -0.879,0.112 -1.102,0.336 -0.225,0.224 -0.367,0.495 -0.432,0.814 -0.129,0.319 -0.129,0.702 0,1.149 v 3.641 l 14.756,9.582 c 1.852,1.021 3.273,2.107 4.264,3.258 0.991,1.151 1.676,2.236 2.059,3.258 0.447,1.15 0.672,2.363 0.672,3.641 v 14.658 c -0.129,2.109 -0.672,3.818 -1.629,5.127 -0.959,1.311 -2.045,2.316 -3.258,3.018 -1.406,0.83 -2.971,1.438 -4.695,1.82 h -19.354 c -2.428,-0.064 -4.328,-0.67 -5.701,-1.82 -1.373,-1.148 -2.379,-2.363 -3.018,-3.641 -0.768,-1.533 -1.246,-3.258 -1.438,-5.174 v -21.846 l 17.438,10.637 v 3.736 c 0,0.574 0.08,1.006 0.24,1.293 0.158,0.287 0.367,0.496 0.623,0.623 0.254,0.191 0.574,0.287 0.957,0.287 0.959,-0.064 1.502,-0.447 1.629,-1.15 0.064,-0.254 0.031,-0.605 -0.096,-1.053 v -4.408 l -12.742,-7.664 c -2.236,-1.213 -3.914,-2.508 -5.031,-3.881 -1.117,-1.373 -1.932,-2.604 -2.443,-3.689 -0.574,-1.277 -0.861,-2.555 -0.861,-3.832 v -15.713 c 0.127,-2.427 0.701,-4.311 1.725,-5.652 1.021,-1.342 2.172,-2.332 3.449,-2.971 1.469,-0.702 3.098,-1.117 4.887,-1.245 h 17.15 c 2.938,0.128 5.205,0.671 6.803,1.629 1.596,0.958 2.811,2.044 3.641,3.257 0.895,1.406 1.469,2.971 1.725,4.695 v 24.432 z m -1.533,-8.335 c 1.021,0.128 1.805,0.367 2.348,0.719 0.543,0.352 0.975,0.75 1.293,1.197 0.32,0.512 0.543,1.086 0.672,1.725 v 2.778 l 12.455,7.473 -0.191,-16.383 c 0.063,-1.66 -0.305,-3.018 -1.102,-4.072 -0.799,-1.054 -1.678,-1.868 -2.635,-2.443 -1.15,-0.702 -2.461,-1.149 -3.93,-1.342 H 329.74 c -1.471,0.129 -2.621,0.528 -3.451,1.198 -0.83,0.671 -1.469,1.357 -1.916,2.06 -0.512,0.895 -0.861,1.854 -1.053,2.875 V 175.4 c -0.064,1.278 0.191,2.395 0.766,3.354 0.574,0.957 1.213,1.787 1.916,2.49 0.768,0.83 1.693,1.564 2.779,2.203 l 15.713,10.156 v 6.229 c 0,1.213 -0.256,2.156 -0.766,2.826 -0.512,0.672 -1.086,1.166 -1.725,1.484 -0.703,0.385 -1.533,0.641 -2.492,0.768 -1.213,-0.127 -2.139,-0.398 -2.777,-0.814 -0.639,-0.414 -1.119,-0.877 -1.438,-1.389 -0.385,-0.574 -0.641,-1.246 -0.768,-2.014 v -3.064 l -11.209,-6.707 -0.191,15.713 c 0.063,1.852 0.463,3.273 1.197,4.264 0.734,0.991 1.549,1.74 2.443,2.252 1.021,0.574 2.203,0.926 3.545,1.053 h 18.684 c 1.852,-0.063 3.24,-0.479 4.168,-1.244 0.926,-0.768 1.611,-1.598 2.059,-2.492 0.512,-1.086 0.768,-2.299 0.768,-3.641 V 192.55 c 0.063,-0.768 -0.129,-1.533 -0.576,-2.301 -0.447,-0.766 -0.957,-1.436 -1.531,-2.012 -0.703,-0.703 -1.471,-1.373 -2.301,-2.012 l -17.055,-11.019 v -7.09 c 0.064,-1.086 0.367,-1.884 0.91,-2.395 0.543,-0.511 1.102,-0.895 1.678,-1.15 0.703,-0.254 1.469,-0.413 2.299,-0.477 z"
   id="path2696"
   style="fill:none;stroke:url(#linearGradient3380)" />
	<path
   fill="#706365"
   d="m 402.461,150.68 v 56.912 c -0.064,2.236 -0.527,4.01 -1.389,5.318 -0.863,1.311 -1.836,2.316 -2.922,3.018 -1.215,0.768 -2.619,1.311 -4.217,1.629 H 365.67 V 201.27 h 18.012 v -3.162 h -12.264 c -2.363,-0.127 -4.152,-0.703 -5.365,-1.725 -1.215,-1.021 -2.076,-2.172 -2.588,-3.449 -0.639,-1.469 -0.957,-3.098 -0.957,-4.887 V 150.68 h 18.396 v 30.564 h 3.162 V 150.68 Z m -3.162,3.545 h -11.592 v 26.158 c -0.064,0.83 -0.289,1.564 -0.672,2.203 -0.32,0.574 -0.814,1.086 -1.484,1.533 -0.672,0.447 -1.645,0.703 -2.922,0.766 -0.959,0.064 -1.789,-0.031 -2.492,-0.287 -0.639,-0.256 -1.213,-0.703 -1.725,-1.342 -0.512,-0.639 -0.799,-1.66 -0.861,-3.066 V 154.226 H 366.34 v 34.013 c 0.064,1.277 0.352,2.428 0.863,3.449 0.447,0.895 1.133,1.709 2.059,2.443 0.926,0.734 2.283,1.102 4.072,1.102 h 14.277 v 4.982 c -0.129,0.83 -0.416,1.564 -0.863,2.203 -0.383,0.512 -0.959,0.99 -1.725,1.438 -0.768,0.447 -1.789,0.672 -3.066,0.672 h -12.838 v 9.484 h 24.432 c 1.086,-0.127 2.045,-0.445 2.875,-0.957 0.701,-0.447 1.355,-1.117 1.963,-2.012 0.608,-0.895 0.91,-2.109 0.91,-3.643 z"
   id="path2698"
   style="fill:none;stroke:url(#linearGradient3382)" />
	<path
   fill="#706365"
   d="m 426.799,172.429 v -2.778 c 0.063,-1.277 -0.225,-2.044 -0.863,-2.3 -0.256,-0.127 -0.607,-0.127 -1.053,0 -0.512,0 -0.879,0.112 -1.104,0.336 -0.223,0.224 -0.367,0.495 -0.43,0.814 -0.129,0.319 -0.129,0.702 0,1.149 v 3.641 l 14.754,9.582 c 1.852,1.021 3.273,2.107 4.264,3.258 0.991,1.151 1.678,2.236 2.061,3.258 0.447,1.15 0.67,2.363 0.67,3.641 v 14.658 c -0.127,2.109 -0.67,3.818 -1.629,5.127 -0.957,1.311 -2.043,2.316 -3.258,3.018 -1.404,0.83 -2.969,1.438 -4.693,1.82 h -19.355 c -2.428,-0.064 -4.328,-0.67 -5.701,-1.82 -1.373,-1.148 -2.379,-2.363 -3.018,-3.641 -0.766,-1.533 -1.246,-3.258 -1.438,-5.174 v -21.846 l 17.439,10.637 v 3.736 c 0,0.574 0.078,1.006 0.238,1.293 0.16,0.287 0.367,0.496 0.623,0.623 0.256,0.191 0.574,0.287 0.959,0.287 0.957,-0.064 1.5,-0.447 1.629,-1.15 0.063,-0.254 0.031,-0.605 -0.096,-1.053 v -4.408 l -12.744,-7.664 c -2.236,-1.213 -3.912,-2.508 -5.029,-3.881 -1.119,-1.373 -1.934,-2.604 -2.443,-3.689 -0.576,-1.277 -0.863,-2.555 -0.863,-3.832 v -15.713 c 0.127,-2.427 0.703,-4.311 1.725,-5.652 1.022,-1.341 2.172,-2.332 3.449,-2.971 1.469,-0.702 3.098,-1.117 4.887,-1.245 h 17.15 c 2.938,0.128 5.205,0.671 6.803,1.629 1.598,0.958 2.811,2.044 3.641,3.257 0.895,1.406 1.469,2.971 1.725,4.695 v 24.432 z m -1.533,-8.335 c 1.021,0.128 1.805,0.367 2.348,0.719 0.543,0.352 0.973,0.75 1.293,1.197 0.318,0.512 0.543,1.086 0.67,1.725 v 2.778 l 12.457,7.473 -0.193,-16.383 c 0.064,-1.66 -0.303,-3.018 -1.102,-4.072 -0.799,-1.054 -1.676,-1.868 -2.635,-2.443 -1.15,-0.702 -2.459,-1.149 -3.928,-1.342 h -18.588 c -1.469,0.129 -2.619,0.528 -3.449,1.198 -0.83,0.671 -1.469,1.357 -1.916,2.06 -0.512,0.895 -0.863,1.854 -1.055,2.875 V 175.4 c -0.064,1.278 0.191,2.395 0.768,3.354 0.574,0.957 1.213,1.787 1.916,2.49 0.766,0.83 1.693,1.564 2.779,2.203 l 15.713,10.156 v 6.229 c 0,1.213 -0.256,2.156 -0.768,2.826 -0.512,0.672 -1.086,1.166 -1.725,1.484 -0.703,0.385 -1.533,0.641 -2.49,0.768 -1.215,-0.127 -2.141,-0.398 -2.779,-0.814 -0.639,-0.414 -1.117,-0.877 -1.438,-1.389 -0.383,-0.574 -0.639,-1.246 -0.766,-2.014 v -3.064 l -11.211,-6.707 -0.191,15.713 c 0.064,1.852 0.463,3.273 1.197,4.264 0.734,0.991 1.549,1.74 2.443,2.252 1.021,0.574 2.203,0.926 3.545,1.053 h 18.684 c 1.852,-0.063 3.242,-0.479 4.168,-1.244 0.926,-0.768 1.613,-1.598 2.061,-2.492 0.51,-1.086 0.766,-2.299 0.766,-3.641 V 192.55 c 0.064,-0.768 -0.127,-1.533 -0.574,-2.301 -0.447,-0.766 -0.959,-1.436 -1.533,-2.012 -0.703,-0.703 -1.469,-1.373 -2.299,-2.012 l -17.055,-11.019 v -7.09 c 0.063,-1.086 0.367,-1.884 0.91,-2.395 0.543,-0.511 1.102,-0.895 1.676,-1.15 0.703,-0.254 1.471,-0.413 2.301,-0.477 z"
   id="path2700"
   style="fill:none;stroke:url(#linearGradient3384)" />
	<path
   fill="#706365"
   d="m 483.424,150.871 v 17.438 h -8.24 v 49.152 H 455.83 v -49.152 h -7.857 v -17.82 z m -3.736,3.449 h -28.266 v 10.156 h 8.049 v 49.535 h 11.689 v -49.248 h 8.527 V 154.32 Z"
   id="path2702"
   style="fill:none;stroke:url(#linearGradient3386)" />
	<path
   fill="#706365"
   d="m 505.27,168.117 v 7.761 h 12.264 v 17.438 h -12.646 v 7.377 h 12.646 v 17.055 l -31.139,-0.191 v -67.068 h 31.521 v 17.629 H 505.27 Z m -3.737,11.306 v -14.851 h 12.646 v -10.156 h -24.24 v 60.554 h 24.24 v -10.635 h -12.838 v -14.564 h 13.029 v -10.348 z"
   id="path2704"
   style="fill:none;stroke:url(#linearGradient3388)" />
	<path
   fill="#706365"
   d="m 578.949,152.932 c 1.277,1.054 2.172,2.155 2.684,3.305 0.639,1.342 0.926,2.812 0.861,4.407 v 57.2 h -18.205 v -48.097 c -0.064,-0.702 -0.318,-1.149 -0.766,-1.341 -0.256,-0.064 -0.512,-0.097 -0.768,-0.097 -0.383,0 -0.686,0.097 -0.91,0.288 -0.223,0.191 -0.398,0.383 -0.525,0.574 -0.193,0.256 -0.289,0.512 -0.289,0.767 v 47.714 H 543.02 v -47.619 c 0,-0.702 -0.256,-1.245 -0.766,-1.628 -0.256,-0.191 -0.512,-0.319 -0.768,-0.384 -0.447,0 -0.799,0.097 -1.055,0.288 -0.256,0.191 -0.447,0.415 -0.574,0.67 -0.191,0.256 -0.287,0.575 -0.287,0.958 v 47.427 h -17.438 v -66.781 h 22.324 c 1.404,-0.128 2.635,-0.017 3.688,0.335 1.055,0.352 1.965,0.783 2.732,1.294 0.83,0.575 1.596,1.246 2.299,2.012 0.383,-0.702 0.861,-1.261 1.438,-1.677 0.574,-0.415 1.148,-0.75 1.725,-1.006 0.639,-0.256 1.309,-0.479 2.012,-0.671 h 15.043 c 2.425,0.321 4.279,1.008 5.556,2.062 z m 0.192,7.233 c -0.064,-1.086 -0.318,-2.044 -0.766,-2.874 -0.385,-0.703 -1.039,-1.357 -1.965,-1.965 -0.926,-0.606 -2.221,-0.91 -3.881,-0.91 h -13.125 c -1.023,0.064 -1.98,0.319 -2.875,0.767 -0.768,0.384 -1.549,0.959 -2.348,1.725 -0.799,0.767 -1.422,1.789 -1.869,3.066 -0.512,-1.213 -1.117,-2.268 -1.82,-3.162 -0.703,-0.766 -1.564,-1.469 -2.586,-2.107 -1.023,-0.639 -2.365,-0.927 -4.025,-0.862 l -17.916,0.191 v 59.978 H 536.6 v -44.457 c -0.064,-0.895 0.096,-1.692 0.479,-2.396 0.32,-0.639 0.848,-1.213 1.582,-1.725 0.734,-0.511 1.836,-0.767 3.305,-0.767 0.768,0 1.502,0.192 2.205,0.575 0.51,0.319 1.006,0.878 1.484,1.677 0.478,0.799 0.719,1.964 0.719,3.497 v 43.594 h 11.307 v -44.457 c 0,-0.766 0.191,-1.501 0.574,-2.204 0.318,-0.574 0.83,-1.102 1.533,-1.58 0.701,-0.479 1.756,-0.719 3.162,-0.719 0.766,-0.063 1.5,0.032 2.203,0.287 0.574,0.256 1.102,0.703 1.58,1.342 0.478,0.639 0.719,1.661 0.719,3.065 v 44.265 h 11.689 z"
   id="path2706"
   style="fill:none;stroke:url(#linearGradient3390)" />
</g><polygon
     fill="#706365"
     points="154.833,130.288 147.211,130.288 147.211,139.104 143.1,139.104 143.1,117.018 154.833,117.018 154.833,121.107 147.211,121.107 147.211,126.067 154.833,126.067 "
     id="polygon2710"
     style="fill:none;stroke:url(#linearGradient3394)" /><path
     fill="#706365"
     d="m 168.176,139.104 h -3.997 v -3.439 h -7.742 l -2.294,3.439 h -4.707 l 15.485,-22.086 h 3.255 z m -3.997,-7.612 v -6.444 l -4.729,6.444 z"
     id="path2712"
     style="fill:none;stroke:url(#linearGradient3396)" /><polygon
     fill="#706365"
     points="188.055,139.104 188.055,127.969 182.956,139.104 178.783,139.104 173.869,127.969 173.869,139.104 169.743,139.104 169.743,117.018 174.379,117.018 180.916,131.864 187.499,117.018 192.182,117.018 192.182,139.104 "
     id="polygon2714"
     style="fill:none;stroke:url(#linearGradient3398)" /><polygon
     fill="#706365"
     points="287.432,139.104 287.432,127.969 282.332,139.104 278.16,139.104 273.245,127.969 273.245,139.104 269.119,139.104 269.119,117.018 273.756,117.018 280.292,131.864 286.876,117.018 291.559,117.018 291.559,139.104 "
     id="polygon2716"
     style="fill:none;stroke:url(#linearGradient3400)" /><rect
     x="193.483"
     y="117.018"
     fill="#706365"
     width="4.2709999"
     height="22.086"
     id="rect2718"
     style="fill:none;stroke:url(#linearGradient3402)" /><polygon
     fill="#706365"
     points="198.93,117.018 203.2,117.018 203.2,135.077 208.765,135.077 208.765,139.104 198.93,139.104 "
     id="polygon2720"
     style="fill:none;stroke:url(#linearGradient3404)" /><polygon
     fill="#706365"
     points="215.235,139.104 211.095,139.104 211.095,131.066 204.02,117.018 208.765,117.018 213.251,126.067 217.608,117.018 222.31,117.018 215.235,131.066 "
     id="polygon2722"
     style="fill:none;stroke:url(#linearGradient3406)" /><path
     fill="#706365"
     stroke="#231F20"
     stroke-width="0.3451"
     d="M 245.582,133.402"
     id="path2724"
     style="fill:none;stroke:url(#linearGradient3408)" /><path
     fill="#706365"
     d="m 245.521,123.109 c -1.875,-3.573 -5.621,-6.011 -9.937,-6.011 -6.194,0 -11.216,5.021 -11.216,11.216 0,6.195 5.021,11.215 11.216,11.215 4.346,0 8.115,-2.472 9.977,-6.087 l -5.082,0.042 c -1.253,1.155 -2.927,1.861 -4.766,1.861 -3.884,0 -7.031,-3.148 -7.031,-7.032 0,-3.884 3.147,-7.031 7.031,-7.031 1.813,0 3.466,0.686 4.712,1.813 z"
     id="path2726"
     style="fill:none;stroke:url(#linearGradient3410)" /><path
     fill="#706365"
     d="m 256.619,139.588 c -6.226,0 -11.273,-5.048 -11.273,-11.274 0,-6.226 5.048,-11.274 11.273,-11.274 6.228,0 11.275,5.048 11.275,11.274 10e-4,6.227 -5.047,11.274 -11.275,11.274 z m 7.178,-11.274 c 0,-3.939 -3.195,-7.133 -7.134,-7.133 -3.939,0 -7.133,3.194 -7.133,7.133 0,3.939 3.193,7.133 7.133,7.133 3.939,0 7.134,-3.194 7.134,-7.133 z"
     id="path2728"
     style="fill:none;stroke:url(#linearGradient3412)" /><path
     fill="#706365"
     d="m 300.354,117.021 c 3.737,0.3 6.677,3.429 6.677,7.244 0,3.814 -2.939,6.943 -6.677,7.243 l -3.229,-0.015 v 7.611 h -4.141 v -22.086 h 4.141 z m -3.228,4.248 v 5.991 l 3.229,-0.003 c 1.412,-0.264 2.481,-1.503 2.481,-2.992 0,-1.49 -1.069,-2.729 -2.481,-2.993 z"
     id="path2730"
     style="fill:none;stroke:url(#linearGradient3414)" /><path
     fill="#706365"
     d="m 352.528,139.391 h -4.099 v -22.183 l 5.695,-0.008 3.228,0.002 c 3.737,0.3 6.677,3.429 6.677,7.244 0,3.116 -1.963,5.775 -4.719,6.807 l 4.778,8.137 h -4.485 l -6.697,-11.442 h -0.378 z m -2.545,-0.105 m 4.142,0 m 3.229,-11.848 c 1.412,-0.264 2.481,-1.504 2.481,-2.992 0,-1.49 -1.069,-2.729 -2.481,-2.993 h -4.825 v 5.989 z"
     id="path2732"
     style="fill:none;stroke:url(#linearGradient3416)" /><path
     fill="#706365"
     d="m 318.43,125.638 m 0,0 m -5.987,0 m -0.015,4.142 m 0,0 0.003,3.229 c 0.265,1.413 1.503,2.481 2.992,2.481 1.489,0 2.729,-1.069 2.993,-2.481 l 0.003,-3.229 0.011,-12.571 h 4.24 v 12.571 l -0.004,3.229 c -0.3,3.738 -3.428,6.676 -7.243,6.676 -3.814,0 -6.942,-2.938 -7.243,-6.676 l 0.015,-3.229 -0.007,-12.571 h 4.256 z"
     id="path2734"
     style="fill:none;stroke:url(#linearGradient3418)" /><polygon
     fill="#706365"
     points="323.281,121.389 326.905,121.389 326.905,139.391 331.09,139.391 331.09,121.389 334.842,121.389 334.842,117.208 323.281,117.208 "
     id="polygon2736"
     style="fill:none;stroke:url(#linearGradient3420)" /><polygon
     fill="#706365"
     points="339.976,126.536 347.352,126.536 347.352,130.678 339.976,130.678 339.976,135.293 347.352,135.293 347.352,139.391 335.855,139.391 335.855,117.208 347.352,117.208 347.352,121.269 339.976,121.269 "
     id="polygon2738"
     style="fill:none;stroke:url(#linearGradient3422)" /><path
     fill="#706365"
     stroke="#231F20"
     stroke-width="0.3451"
     d="M 352.528,127.969"
     id="path2740"
     style="fill:none;stroke:url(#linearGradient3424)" /><g
     id="g2758"
     style="fill:none;stroke:url(#linearGradient3442)">
	<g
   id="g2746"
   style="fill:none;stroke:url(#linearGradient3430)">
		<path
   fill="#FDBC1C"
   d="m 71.735,203.853 c 6.338,0 11.477,5.137 11.477,11.475 h 30.341 c 4.949,0 8.961,-4.012 8.961,-8.959 0,-4.068 -2.712,-7.506 -6.426,-8.6 l -0.021,-0.039 c 0,-2.811 0,-5.877 0,-9.313 l 0.045,-0.097 c 5.534,-2.48 9.388,-8.038 9.388,-14.495 0,-6.424 -3.816,-11.959 -9.306,-14.458 l -0.127,-0.083 c 0,-14.469 0,-27.019 0,-29.32 0,-5.644 -4.575,-10.219 -10.218,-10.219 H 37.516 c -5.644,0 -10.219,4.575 -10.219,10.219 0,2.301 0,14.851 0,29.32 l -0.126,0.083 c -5.49,2.499 -9.307,8.034 -9.307,14.458 0,6.457 3.854,12.015 9.388,14.495 l 0.045,0.097 c 0,3.437 0,6.503 0,9.313 l -0.02,0.039 c -3.714,1.094 -6.426,4.531 -6.426,8.6 0,4.947 4.013,8.959 8.961,8.959 h 30.341 c 0,-6.338 5.138,-11.475 11.477,-11.475 z"
   id="path2742"
   style="fill:none;stroke:url(#linearGradient3426)" />
		<path
   d="m 18.335,206.369 c 0.005,-4.535 2.627,-8.455 6.445,-10.319 v 0 c 0,-1.921 0,-3.964 0,-6.157 v 0 c -5.626,-3.145 -9.43,-9.164 -9.432,-16.067 v 0 c 0.002,-6.903 3.806,-12.923 9.432,-16.066 v 0 c 0,-13.82 0,-25.576 0,-27.795 v 0 c 0.003,-7.034 5.701,-12.733 12.734,-12.734 v 0 h 68.333 c 7.034,0.001 12.733,5.701 12.734,12.734 v 0 c 0,2.219 0,13.977 0,27.795 v 0 c 5.626,3.143 9.43,9.163 9.432,16.066 v 0 c -0.002,6.903 -3.805,12.923 -9.432,16.067 v 0 c 0,2.193 0,4.236 0,6.157 v 0 c 3.819,1.864 6.442,5.784 6.445,10.319 v 0 c -10e-4,6.338 -5.136,11.473 -11.476,11.475 v 0 H 80.696 v -2.516 c -0.009,-4.947 -4.013,-8.951 -8.96,-8.961 v 0 -2.516 -2.516 c 6.869,0.002 12.58,4.951 13.765,11.479 v 0 h 28.052 c 3.558,-0.008 6.439,-2.889 6.444,-6.445 v 0 c 0.005,-2.928 -1.956,-5.398 -4.62,-6.186 v 0 l -1.042,-0.307 -0.783,-1.545 v -0.602 c -0.001,-2.812 -0.001,-5.879 -0.001,-9.314 v 0 -0.56 l 0.679,-1.45 0.854,-0.381 c 4.657,-2.092 7.903,-6.764 7.901,-12.2 v 0 c 0.002,-5.41 -3.213,-10.062 -7.833,-12.169 v 0 l -0.183,-0.083 -1.418,-0.937 v -1.352 c 0,-14.47 0,-27.019 0,-29.32 v 0 c -0.008,-4.254 -3.449,-7.695 -7.703,-7.704 v 0 H 37.515 c -4.254,0.008 -7.695,3.45 -7.703,7.704 v 0 c 0,2.301 0,14.851 0,29.32 v 0 1.352 l -1.129,0.746 -0.291,0.192 -0.18,0.082 c -4.621,2.108 -7.835,6.76 -7.833,12.169 v 0 c -0.003,5.437 3.244,10.108 7.901,12.2 v 0 l 0.852,0.381 0.679,1.45 v 0.56 c 0,3.436 0,6.503 0,9.314 v 0 0.602 l -0.784,1.545 -1.042,0.307 c -2.665,0.787 -4.625,3.258 -4.62,6.186 v 0 c 0.005,3.557 2.886,6.438 6.445,6.445 v 0 h 28.051 c 1.187,-6.527 6.897,-11.477 13.767,-11.479 v 0 h 0.105 v 2.516 2.516 H 71.63 c -4.949,0.01 -8.952,4.014 -8.961,8.961 v 0 2.516 H 29.813 c -6.339,-0.003 -11.476,-5.137 -11.478,-11.475 z"
   id="path2744"
   style="fill:none;stroke:url(#linearGradient3428)" />
	</g>
	<path
   fill="#EC1C4E"
   d="M 27.297,208.673"
   id="path2748"
   style="fill:none;stroke:url(#linearGradient3432)" />
	<path
   d="m 31.96,155.326 c 10e-4,-10.448 8.47,-18.916 18.918,-18.917 v 0 c 10.448,0.001 18.917,8.469 18.917,18.917 v 0 c -0.001,10.448 -8.47,18.916 -18.917,18.916 v 0 c -10.447,0 -18.916,-8.468 -18.918,-18.916 z m 3.145,0 c 0.015,8.712 7.062,15.757 15.773,15.772 v 0 c 8.711,-0.015 15.758,-7.061 15.773,-15.772 v 0 c -0.016,-8.71 -7.063,-15.757 -15.773,-15.773 v 0 c -8.711,0.016 -15.758,7.063 -15.773,15.773 z"
   id="path2750"
   style="fill:none;stroke:url(#linearGradient3434)" />
	<circle
   cx="63.089001"
   cy="155.38"
   r="4.402"
   id="circle2752"
   style="fill:none;stroke:url(#linearGradient3436)" />
	<path
   d="m 73.569,155.326 v 0 c 0,-10.448 8.469,-18.916 18.917,-18.917 v 0 c 10.447,0.001 18.916,8.469 18.917,18.917 v 0 c -0.001,10.448 -8.47,18.916 -18.917,18.916 v 0 c -10.448,0 -18.917,-8.468 -18.917,-18.916 z m 18.917,15.773 c 8.71,-0.015 15.757,-7.061 15.772,-15.772 v 0 c -0.016,-8.71 -7.062,-15.757 -15.772,-15.773 v 0 c -8.71,0.016 -15.759,7.063 -15.774,15.773 v 0 c 0.016,8.711 7.064,15.756 15.774,15.772 z"
   id="path2754"
   style="fill:none;stroke:url(#linearGradient3438)" />
	<circle
   cx="80.276001"
   cy="155.38"
   r="4.402"
   id="circle2756"
   style="fill:none;stroke:url(#linearGradient3440)" />
</g></g>
</svg>
