<?xml version="1.0" encoding="UTF-8" standalone="no"?>
<svg
   xmlns:dc="http://purl.org/dc/elements/1.1/"
   xmlns:cc="http://creativecommons.org/ns#"
   xmlns:rdf="http://www.w3.org/1999/02/22-rdf-syntax-ns#"
   xmlns:svg="http://www.w3.org/2000/svg"
   xmlns="http://www.w3.org/2000/svg"
   xmlns:xlink="http://www.w3.org/1999/xlink"
   xmlns:sodipodi="http://sodipodi.sourceforge.net/DTD/sodipodi-0.dtd"
   xmlns:inkscape="http://www.inkscape.org/namespaces/inkscape"
   version="1.2"
   id="svg2"
   x="0px"
   y="0px"
   width="316.575px"
   height="154.868px"
   viewBox="122.277 6.458 316.575 154.868"
   xml:space="preserve"
   sodipodi:docname="system.svg"
   inkscape:version="1.0.2 (e86c8708, 2021-01-15)"><metadata
   id="metadata7544"><rdf:RDF><cc:Work
       rdf:about=""><dc:format>image/svg+xml</dc:format><dc:type
         rdf:resource="http://purl.org/dc/dcmitype/StillImage" /></cc:Work></rdf:RDF></metadata><defs
   id="defs7542"><linearGradient
     inkscape:collect="always"
     id="linearGradient8131"><stop
       style="stop-color:#ff00ff;stop-opacity:1"
       offset="0"
       id="stop8127" /><stop
       style="stop-color:#0600ff;stop-opacity:1"
       offset="1"
       id="stop8129" /></linearGradient><linearGradient
     inkscape:collect="always"
     xlink:href="#linearGradient8131"
     id="linearGradient8133"
     x1="122.277"
     y1="83.892"
     x2="438.852"
     y2="83.892"
     gradientUnits="userSpaceOnUse" /></defs><sodipodi:namedview
   pagecolor="#ffffff"
   bordercolor="#666666"
   borderopacity="1"
   objecttolerance="10"
   gridtolerance="10"
   guidetolerance="10"
   inkscape:pageopacity="0"
   inkscape:pageshadow="2"
   inkscape:window-width="1280"
   inkscape:window-height="800"
   id="namedview7540"
   showgrid="false"
   inkscape:zoom="1.4364595"
   inkscape:cx="213.33345"
   inkscape:cy="133.31897"
   inkscape:window-x="0"
   inkscape:window-y="0"
   inkscape:window-maximized="0"
   inkscape:current-layer="svg2" />
















<g
   id="g8125"
   style="fill:none;stroke:url(#linearGradient8133)"><g
     id="layer1"
     style="fill:none;stroke:url(#linearGradient8133)">
</g><g
     id="layer5"
     style="fill:none;stroke:url(#linearGradient8133)">
</g><polygon
     fill="#008FA9"
     points="167.223,6.458 135.956,6.458 122.277,22.092 122.277,55.313 137.91,70.946 151.589,70.946   151.589,49.45 145.727,49.45 145.727,26 161.36,26 161.36,41.634 182.856,41.634 182.856,22.092 "
     id="polygon7507"
     style="fill:none;stroke:url(#linearGradient8133)" /><polygon
     fill="#008FA9"
     points="137.91,115.892 171.131,115.892 184.81,100.259 184.81,65.084 169.177,49.45 155.498,49.45   155.498,70.946 161.36,70.946 161.36,94.396 145.727,94.396 145.727,78.762 122.277,78.762 122.277,100.259 "
     id="polygon7509"
     style="fill:none;stroke:url(#linearGradient8133)" /><polygon
     fill="#008FA9"
     points="188.718,100.259 205.329,115.892 218.031,115.892 218.031,96.351 212.168,96.351 212.168,6.458   188.718,6.458 "
     id="polygon7511"
     style="fill:none;stroke:url(#linearGradient8133)" /><polygon
     fill="#008FA9"
     points="251.251,100.259 234.642,115.892 221.939,115.892 221.939,96.351 227.801,96.351 227.801,6.458   251.251,6.458 "
     id="polygon7513"
     style="fill:none;stroke:url(#linearGradient8133)" /><polygon
     fill="#008FA9"
     points="284.473,6.458 284.473,26 292.289,26 292.289,59.221 284.473,59.221 284.473,80.717 300.105,80.717   315.739,65.084 315.739,23.069 299.129,6.458 "
     id="polygon7515"
     style="fill:none;stroke:url(#linearGradient8133)" /><rect
     x="257.114"
     y="6.458"
     fill="#008FA9"
     width="23.45"
     height="109.433"
     id="rect7517"
     style="fill:none;stroke:url(#linearGradient8133)" /><polygon
     fill="#008FA9"
     points="345.051,27.955 370.456,27.955 370.456,6.458 323.556,6.458 323.556,115.892 370.456,115.892   370.456,96.351 345.051,96.351 "
     id="polygon7519"
     style="fill:none;stroke:url(#linearGradient8133)" /><rect
     x="348.96"
     y="49.45"
     fill="#008FA9"
     width="15.634"
     height="19.542"
     id="rect7521"
     style="fill:none;stroke:url(#linearGradient8133)" /><polygon
     fill="#008FA9"
     points="405.631,6.458 423.219,6.458 438.852,22.092 438.852,51.404 428.104,62.152 438.852,72.9   438.852,115.892 417.355,115.892 417.355,72.9 405.631,72.9 405.631,51.404 415.401,51.404 415.401,26 405.631,26 "
     id="polygon7523"
     style="fill:none;stroke:url(#linearGradient8133)" /><rect
     x="378.273"
     y="6.458"
     fill="#008FA9"
     width="23.448"
     height="109.433"
     id="rect7525"
     style="fill:none;stroke:url(#linearGradient8133)" /><polygon
     fill="#008FA9"
     points="169.177,127.616 164.291,132.502 164.291,154.976 170.642,161.326 206.306,161.326 206.306,141.296   186.765,141.296 186.765,147.159 200.443,147.159 200.443,154.976 173.085,154.976 173.085,133.479 206.306,133.479   206.306,127.616 "
     id="polygon7527"
     style="fill:none;stroke:url(#linearGradient8133)" /><g
     id="g7531"
     style="fill:none;stroke:url(#linearGradient8133)">
	<path
   fill="#008FA9"
   d="M253.206,142.273v-8.794l-5.862-5.863h-33.221v33.221h7.816v-13.678h13.679l9.771,13.678h7.817   l-9.771-13.678h3.909L253.206,142.273z M245.389,141.296h-23.45v-7.816h23.45V141.296z"
   id="path7529"
   style="fill:none;stroke:url(#linearGradient8133)" />
</g><polygon
     fill="#008FA9"
     points="257.114,160.837 272.748,127.616 288.381,127.616 305.969,160.837 296.197,160.837 282.519,135.434   278.61,135.434 266.885,160.837 "
     id="polygon7533"
     style="fill:none;stroke:url(#linearGradient8133)" /><polygon
     fill="#008FA9"
     points="307.922,127.616 307.922,160.837 315.739,160.837 315.739,147.159 341.143,147.159 341.143,141.296   315.739,141.296 315.739,133.479 345.051,133.479 345.051,127.616 "
     id="polygon7535"
     style="fill:none;stroke:url(#linearGradient8133)" /><polygon
     fill="#008FA9"
     points="348.96,127.616 364.594,143.25 347.006,160.837 358.73,160.837 370.456,149.112 382.181,160.837   393.905,160.837 376.318,143.25 393.905,127.616 382.181,127.616 370.456,139.342 358.73,127.616 "
     id="polygon7537"
     style="fill:none;stroke:url(#linearGradient8133)" /></g>
</svg>
