<?xml version="1.0" encoding="UTF-8" standalone="no"?>
<svg
   xmlns:dc="http://purl.org/dc/elements/1.1/"
   xmlns:cc="http://creativecommons.org/ns#"
   xmlns:rdf="http://www.w3.org/1999/02/22-rdf-syntax-ns#"
   xmlns:svg="http://www.w3.org/2000/svg"
   xmlns="http://www.w3.org/2000/svg"
   xmlns:xlink="http://www.w3.org/1999/xlink"
   xmlns:sodipodi="http://sodipodi.sourceforge.net/DTD/sodipodi-0.dtd"
   xmlns:inkscape="http://www.inkscape.org/namespaces/inkscape"
   version="1.1"
   id="Ebene_1"
   x="0px"
   y="0px"
   width="566.93px"
   height="124.23px"
   viewBox="0 0 566.93 124.23"
   enable-background="new 0 0 566.93 124.23"
   xml:space="preserve"
   sodipodi:docname="system.svg"
   inkscape:version="1.0.2 (e86c8708, 2021-01-15)"><metadata
   id="metadata1320"><rdf:RDF><cc:Work
       rdf:about=""><dc:format>image/svg+xml</dc:format><dc:type
         rdf:resource="http://purl.org/dc/dcmitype/StillImage" /></cc:Work></rdf:RDF></metadata><defs
   id="defs1318"><linearGradient
     inkscape:collect="always"
     id="linearGradient1338"><stop
       style="stop-color:#ff00ff;stop-opacity:1;"
       offset="0"
       id="stop1334" /><stop
       style="stop-color:#0600ff;stop-opacity:1"
       offset="1"
       id="stop1336" /></linearGradient><linearGradient
     inkscape:collect="always"
     id="linearGradient1326"><stop
       style="stop-color:#ff00ff;stop-opacity:1;"
       offset="0"
       id="stop1322" /><stop
       style="stop-color:#ff00ff;stop-opacity:0;"
       offset="1"
       id="stop1324" /></linearGradient><linearGradient
     inkscape:collect="always"
     xlink:href="#linearGradient1338"
     id="linearGradient1328"
     x1="0"
     y1="62.115"
     x2="566.93"
     y2="62.115"
     gradientUnits="userSpaceOnUse" /><linearGradient
     inkscape:collect="always"
     xlink:href="#linearGradient1326"
     id="linearGradient1330" /><linearGradient
     inkscape:collect="always"
     xlink:href="#linearGradient1326"
     id="linearGradient1332" /></defs><sodipodi:namedview
   pagecolor="#ffffff"
   bordercolor="#666666"
   borderopacity="1"
   objecttolerance="10"
   gridtolerance="10"
   guidetolerance="10"
   inkscape:pageopacity="0"
   inkscape:pageshadow="2"
   inkscape:window-width="1280"
   inkscape:window-height="800"
   id="namedview1316"
   showgrid="false"
   inkscape:zoom="1.2135537"
   inkscape:cx="283.465"
   inkscape:cy="62.115002"
   inkscape:window-x="0"
   inkscape:window-y="0"
   inkscape:window-maximized="0"
   inkscape:current-layer="Ebene_1" />
<g
   id="underneath_1_"
   style="fill:none;stroke:url(#linearGradient1332)">
</g>
<g
   id="BOTTOM_LEFT_LINE"
   style="fill:none;stroke:url(#linearGradient1330)">
</g>
<g
   id="g1313"
   style="fill:none;stroke:url(#linearGradient1328)">
	<g
   id="g1288"
   style="fill:none;stroke:url(#linearGradient1328)">
		<g
   id="Layer_6"
   style="fill:none;stroke:url(#linearGradient1328)">
			<line
   fill="none"
   x1="29.248"
   y1="99.123"
   x2="28.12"
   y2="98.282"
   id="line1161"
   style="fill:none;stroke:url(#linearGradient1328)" />
		</g>
		<g
   id="_x33_D_PART"
   style="fill:none;stroke:url(#linearGradient1328)">
			
				<linearGradient
   id="SVGID_1_"
   gradientUnits="userSpaceOnUse"
   x1="24.4146"
   y1="564.8718"
   x2="104.7434"
   y2="551.509"
   gradientTransform="matrix(1 0 0 1 -0.0049 -473.4258)"
   style="stroke:url(#linearGradient1328)">
				<stop
   offset="0.0368"
   style="stop-color:#FFFFFF;stroke:url(#linearGradient1328)"
   id="stop1164" />
				<stop
   offset="0.8957"
   style="stop-color:#898CBF;stroke:url(#linearGradient1328)"
   id="stop1166" />
			</linearGradient>
			<polygon
   fill="url(#SVGID_1_)"
   points="89.451,62.438 89.451,82.608 53.699,103.224 18.222,82.608 16.628,83.691 53.699,105.427      91.065,83.824 91.065,61.505    "
   id="polygon1169"
   style="fill:none;stroke:url(#linearGradient1328)" />
		</g>
		<g
   id="black_line_thing"
   style="fill:none;stroke:url(#linearGradient1328)">
			<polygon
   fill="#7A7EAE"
   points="89.451,82.52 91.065,83.685 91.065,83.824 90.963,83.9 89.308,82.69 89.451,82.608    "
   id="polygon1172"
   style="fill:none;stroke:url(#linearGradient1328)" />
		</g>
		<g
   id="dark_purple_top_line"
   style="fill:none;stroke:url(#linearGradient1328)">
			
				<linearGradient
   id="SVGID_2_"
   gradientUnits="userSpaceOnUse"
   x1="28.4609"
   y1="68.8367"
   x2="54.0488"
   y2="68.8367"
   gradientTransform="matrix(1 0 0 -1 -0.0449 123.9897)"
   style="stroke:url(#linearGradient1328)">
				<stop
   offset="0"
   style="stop-color:#6E70A9;stroke:url(#linearGradient1328)"
   id="stop1175" />
				<stop
   offset="0.9693"
   style="stop-color:#514A8E;stroke:url(#linearGradient1328)"
   id="stop1177" />
			</linearGradient>
			<polygon
   fill="url(#SVGID_2_)"
   points="54.004,62.205 28.814,47.455 28.416,47.853 53.699,62.851    "
   id="polygon1180"
   style="fill:none;stroke:url(#linearGradient1328)" />
			
				<linearGradient
   id="SVGID_3_"
   gradientUnits="userSpaceOnUse"
   x1="53.8574"
   y1="61.6809"
   x2="54.185"
   y2="61.6809"
   gradientTransform="matrix(1 0 0 -1 -0.0449 123.9897)"
   style="stroke:url(#linearGradient1328)">
				<stop
   offset="0"
   style="stop-color:#6E70A9;stroke:url(#linearGradient1328)"
   id="stop1182" />
				<stop
   offset="0.9693"
   style="stop-color:#514A8E;stroke:url(#linearGradient1328)"
   id="stop1184" />
			</linearGradient>
			<polygon
   fill="url(#SVGID_3_)"
   points="53.922,62.205 54.107,62.205 54.14,62.413 53.813,62.413    "
   id="polygon1187"
   style="fill:none;stroke:url(#linearGradient1328)" />
		</g>
		<g
   id="top_black_line"
   style="fill:none;stroke:url(#linearGradient1328)">
			<polygon
   fill="#120F22"
   points="54.004,62.851 54.004,62.205 107.627,31.206 107.785,31.647    "
   id="polygon1190"
   style="fill:none;stroke:url(#linearGradient1328)" />
		</g>
		<g
   id="LOGO_DARK_LINES"
   style="fill:none;stroke:url(#linearGradient1328)">
			<polygon
   fill="#453D76"
   points="54.004,124.23 54.363,105.729 91.582,84.28 91.72,61.312 91.065,61.312 91.065,83.824      53.699,105.427 53.565,124.23    "
   id="polygon1193"
   style="fill:none;stroke:url(#linearGradient1328)" />
		</g>
		<g
   id="LOGO"
   style="fill:none;stroke:url(#linearGradient1328)">
			
				<linearGradient
   id="SVGID_4_"
   gradientUnits="userSpaceOnUse"
   x1="64.0845"
   y1="540.3259"
   x2="108.7263"
   y2="569.6315"
   gradientTransform="matrix(1 0 0 1 -0.0049 -473.4258)"
   style="stroke:url(#linearGradient1328)">
				<stop
   offset="0"
   style="stop-color:#4C5284;stroke:url(#linearGradient1328)"
   id="stop1196" />
				<stop
   offset="1"
   style="stop-color:#8789BC;stroke:url(#linearGradient1328)"
   id="stop1198" />
			</linearGradient>
			<polygon
   fill="url(#SVGID_4_)"
   points="54.004,91.212 54.004,62.851 107.785,31.647 107.785,93.197 54.004,124.23      54.004,105.573 91.361,84.062 91.361,61.332 78.85,68.566 78.85,76.595    "
   id="polygon1201"
   style="fill:none;stroke:url(#linearGradient1328)" />
		</g>
		<g
   id="BOTTOM_LAIN_LEFT_LIGHT_LINE"
   style="fill:none;stroke:url(#linearGradient1328)">
			
				<linearGradient
   id="SVGID_5_"
   gradientUnits="userSpaceOnUse"
   x1="53.4639"
   y1="596.9988"
   x2="53.1529"
   y2="577.0955"
   gradientTransform="matrix(1 0 0 1 -0.0049 -473.4258)"
   style="stroke:url(#linearGradient1328)">
				<stop
   offset="0.1104"
   style="stop-color:#4C407E;stroke:url(#linearGradient1328)"
   id="stop1204" />
				<stop
   offset="0.8896"
   style="stop-color:#666699;stroke:url(#linearGradient1328)"
   id="stop1206" />
				<stop
   offset="1"
   style="stop-color:#A7B3D9;stroke:url(#linearGradient1328)"
   id="stop1208" />
				<stop
   offset="1"
   style="stop-color:#9BA5CD;stroke:url(#linearGradient1328)"
   id="stop1210" />
			</linearGradient>
			<polyline
   fill="url(#SVGID_5_)"
   points="53.402,124.23 53.699,124.23 53.699,105.427 52.642,104.806 53.402,124.23    "
   id="polyline1213"
   style="fill:none;stroke:url(#linearGradient1328)" />
		</g>
		<g
   id="underneath"
   style="fill:none;stroke:url(#linearGradient1328)">
			<polyline
   fill="#2D2868"
   points="16.542,40.703 16.771,40.897 16.862,83.532 16.628,83.691 16.486,83.601 16.542,40.703    "
   id="polyline1216"
   style="fill:none;stroke:url(#linearGradient1328)" />
		</g>
		<g
   id="LEFT_3D_PURPLE_SHADOW"
   style="fill:none;stroke:url(#linearGradient1328)">
			<polygon
   fill="#453D76"
   points="18.222,82.608 16.628,83.691 16.628,40.755 54.004,19.174 54.004,21.3 18.26,41.987    "
   id="polygon1219"
   style="fill:none;stroke:url(#linearGradient1328)" />
		</g>
		<g
   id="MAIN_DARK_PURPLE_LINE"
   style="fill:none;stroke:url(#linearGradient1328)">
			<polygon
   fill="#453D76"
   points="54.004,62.094 54.004,91.212 53.699,91.417 53.699,62.851 53.699,62.028    "
   id="polygon1222"
   style="fill:none;stroke:url(#linearGradient1328)" />
		</g>
		<g
   id="logo_LEFT_side"
   style="fill:none;stroke:url(#linearGradient1328)">
			
				<linearGradient
   id="SVGID_6_"
   gradientUnits="userSpaceOnUse"
   x1="4.8237"
   y1="553.1326"
   x2="66.0259"
   y2="536.1235"
   gradientTransform="matrix(1 0 0 1 -0.0049 -473.4258)"
   style="stroke:url(#linearGradient1328)">
				<stop
   offset="0.2331"
   style="stop-color:#666699;stroke:url(#linearGradient1328)"
   id="stop1225" />
				<stop
   offset="0.7239"
   style="stop-color:#A7B3D9;stroke:url(#linearGradient1328)"
   id="stop1227" />
			</linearGradient>
			<polygon
   fill="url(#SVGID_6_)"
   points="28.416,47.853 28.416,76.802 53.699,91.417 53.699,62.851    "
   id="polygon1230"
   style="fill:none;stroke:url(#linearGradient1328)" />
			
				<linearGradient
   id="SVGID_7_"
   gradientUnits="userSpaceOnUse"
   x1="5.8823"
   y1="556.9314"
   x2="67.0802"
   y2="539.9235"
   gradientTransform="matrix(1 0 0 1 -0.0049 -473.4258)"
   style="stroke:url(#linearGradient1328)">
				<stop
   offset="0.2331"
   style="stop-color:#666699;stroke:url(#linearGradient1328)"
   id="stop1232" />
				<stop
   offset="0.9907"
   style="stop-color:#A7B3D9;stroke:url(#linearGradient1328)"
   id="stop1234" />
			</linearGradient>
			<polygon
   fill="url(#SVGID_7_)"
   points="53.402,123.926 53.402,105.251 16.628,83.691 16.628,40.964 0,31.206 0,93.302      53.402,124.23    "
   id="polygon1237"
   style="fill:none;stroke:url(#linearGradient1328)" />
		</g>
		<g
   id="left_purple_line"
   style="fill:none;stroke:url(#linearGradient1328)">
			<rect
   x="16.343"
   y="40.755"
   fill="#2D2868"
   width="0.285"
   height="42.938"
   id="rect1240"
   style="fill:none;stroke:url(#linearGradient1328)" />
			<polygon
   fill="#2D2868"
   points="16.628,40.755 0.214,30.992 0,31.206 16.486,40.897    "
   id="polygon1242"
   style="fill:none;stroke:url(#linearGradient1328)" />
		</g>
		<g
   id="BOTTOM_PURPLE_LINE"
   style="fill:none;stroke:url(#linearGradient1328)">
			
				<linearGradient
   id="SVGID_8_"
   gradientUnits="userSpaceOnUse"
   x1="19.5859"
   y1="559.8142"
   x2="43.9208"
   y2="572.8358"
   gradientTransform="matrix(1 0 0 1 -0.0049 -473.4258)"
   style="stroke:url(#linearGradient1328)">
				<stop
   offset="0"
   style="stop-color:#6E70A9;stroke:url(#linearGradient1328)"
   id="stop1245" />
				<stop
   offset="0.9693"
   style="stop-color:#514A8E;stroke:url(#linearGradient1328)"
   id="stop1247" />
			</linearGradient>
			<polygon
   fill="url(#SVGID_8_)"
   points="53.402,105.251 53.402,105.603 16.343,84.015 16.343,83.691 16.628,83.691    "
   id="polygon1250"
   style="fill:none;stroke:url(#linearGradient1328)" />
		</g>
		<g
   id="top_middle_light_line"
   style="fill:none;stroke:url(#linearGradient1328)">
			
				<linearGradient
   id="SVGID_9_"
   gradientUnits="userSpaceOnUse"
   x1="55.7349"
   y1="495.6541"
   x2="71.1853"
   y2="503.1706"
   gradientTransform="matrix(1 0 0 1 -0.0049 -473.4258)"
   style="stroke:url(#linearGradient1328)">
				<stop
   offset="0.0368"
   style="stop-color:#9EA5D3;stroke:url(#linearGradient1328)"
   id="stop1253" />
				<stop
   offset="0.9018"
   style="stop-color:#7675AE;stroke:url(#linearGradient1328)"
   id="stop1255" />
			</linearGradient>
			<polygon
   fill="url(#SVGID_9_)"
   points="54.004,19.174 77.901,33.142 77.901,35.231 54.004,21.3    "
   id="polygon1258"
   style="fill:none;stroke:url(#linearGradient1328)" />
		</g>
		<g
   id="top_right"
   style="fill:none;stroke:url(#linearGradient1328)">
			<polygon
   fill="#484592"
   points="77.901,33.142 77.901,35.231 94.454,25.524 94.454,23.552    "
   id="polygon1261"
   style="fill:none;stroke:url(#linearGradient1328)" />
		</g>
		<g
   id="MAIN_TOP"
   style="fill:none;stroke:url(#linearGradient1328)">
			<path
   fill="none"
   d="M0,31.206"
   id="path1264"
   style="fill:none;stroke:url(#linearGradient1328)" />
			
				<linearGradient
   id="SVGID_10_"
   gradientUnits="userSpaceOnUse"
   x1="0.2188"
   y1="504.4177"
   x2="0.2188"
   y2="504.4177"
   gradientTransform="matrix(1 0 0 1 -0.0049 -473.4258)"
   style="stroke:url(#linearGradient1328)">
				<stop
   offset="0.2331"
   style="stop-color:#666699;stroke:url(#linearGradient1328)"
   id="stop1266" />
				<stop
   offset="0.9907"
   style="stop-color:#A7B3D9;stroke:url(#linearGradient1328)"
   id="stop1268" />
			</linearGradient>
			<path
   fill="url(#SVGID_10_)"
   d="M0.214,30.992"
   id="path1271"
   style="fill:none;stroke:url(#linearGradient1328)" />
			
				<linearGradient
   id="SVGID_11_"
   gradientUnits="userSpaceOnUse"
   x1="49.3857"
   y1="477.947"
   x2="45.7412"
   y2="518.442"
   gradientTransform="matrix(1 0 0 1 -0.0049 -473.4258)"
   style="stroke:url(#linearGradient1328)">
				<stop
   offset="0"
   style="stop-color:#AAACD2;stroke:url(#linearGradient1328)"
   id="stop1273" />
				<stop
   offset="0.6258"
   style="stop-color:#FCFAFB;stroke:url(#linearGradient1328)"
   id="stop1275" />
			</linearGradient>
			<polygon
   fill="url(#SVGID_11_)"
   points="53.833,0 94.454,23.552 77.901,33.142 54.004,19.174 16.628,40.755 0.214,30.992    "
   id="polygon1278"
   style="fill:none;stroke:url(#linearGradient1328)" />
			
				<linearGradient
   id="SVGID_12_"
   gradientUnits="userSpaceOnUse"
   x1="71.7798"
   y1="473.2654"
   x2="68.1352"
   y2="513.7612"
   gradientTransform="matrix(1 0 0 1 -0.0049 -473.4258)"
   style="stroke:url(#linearGradient1328)">
				<stop
   offset="0.6743"
   style="stop-color:#AAACD2;stroke:url(#linearGradient1328)"
   id="stop1280" />
				<stop
   offset="1"
   style="stop-color:#FCFAFB;stroke:url(#linearGradient1328)"
   id="stop1282" />
			</linearGradient>
			<polygon
   fill="url(#SVGID_12_)"
   points="28.814,47.455 53.68,33.409 77.369,46.781 106.232,30.192 107.627,31.206 54.004,62.205         "
   id="polygon1285"
   style="fill:none;stroke:url(#linearGradient1328)" />
		</g>
	</g>
	<g
   id="g1298"
   style="fill:none;stroke:url(#linearGradient1328)">
		<path
   id="path23497"
   d="M373.52,21.158v-4.949h-14.143c-1.816,0-3.533,0.404-5.054,1.11c-1.513,0.71-2.726,1.718-3.634,2.932    c-0.908,1.209-1.314,2.529-1.416,4.04v15.252c0.1,1.417,0.508,2.729,1.313,3.944c0.912,1.21,2.121,2.116,3.537,2.924    c1.516,0.71,3.127,1.115,5.053,1.115h14.34v-4.949h-13.739c-1.11,0-2.118-0.306-3.022-0.911c-0.815-0.604-1.318-1.312-1.318-2.319    v-5.657h18.082v-5.053h-18.082v-4.142c0-1.013,0.503-1.817,1.318-2.427c0.904-0.606,1.912-0.91,3.022-0.91h13.739"
   style="fill:none;stroke:url(#linearGradient1328)" />
		<path
   id="path23501"
   d="M457.952,16.21v31.317h15.102c1.916-0.098,3.625-0.405,5.139-1.107c1.609-0.804,2.818-1.712,3.723-2.921    c0.908-1.203,1.307-2.615,1.408-4.127V24.266c-0.102-1.507-0.5-2.821-1.408-4.028c-0.904-1.208-2.111-2.213-3.723-2.921    c-1.514-0.705-3.225-1.107-5.139-1.107H457.952L457.952,16.21z M475.778,22.052c0.898,0.604,1.303,1.407,1.404,2.418v14.803    c-0.104,1.006-0.506,1.812-1.404,2.416c-0.809,0.703-1.82,1.005-2.928,1.005h-8.758V21.046h8.758    C473.958,21.046,474.969,21.347,475.778,22.052"
   style="fill:none;stroke:url(#linearGradient1328)" />
		<path
   id="path23503"
   d="M531.958,17.302c-1.488-0.692-3.172-0.993-5.053-1.093h-5.453c-1.885,0.099-3.566,0.4-5.057,1.093    c-1.584,0.794-2.775,1.68-3.666,2.874c-0.895,1.186-1.389,2.576-1.389,4.063v15.359c0,1.486,0.494,2.777,1.389,3.967    c0.891,1.19,2.082,2.179,3.666,2.874c1.49,0.693,3.172,1.089,5.057,1.089h5.453c1.881,0,3.563-0.396,5.053-1.089    c1.584-0.694,2.773-1.684,3.666-2.874c0.893-1.191,1.387-2.577,1.387-3.967v-15.36c-0.096-1.487-0.494-2.877-1.387-4.063    C534.731,18.981,533.542,18.095,531.958,17.302z M529.579,21.958c0.891,0.694,1.387,1.484,1.387,2.382v15.059    c0,0.892-0.496,1.686-1.387,2.379c-0.793,0.597-1.787,0.994-2.873,0.994h-5.055c-1.094,0-2.084-0.396-2.977-0.994    c-0.789-0.694-1.285-1.487-1.285-2.379V24.34c0-0.897,0.496-1.688,1.285-2.382c0.893-0.596,1.883-0.893,2.977-0.992h5.055    C527.793,21.067,528.786,21.363,529.579,21.958"
   style="fill:none;stroke:url(#linearGradient1328)" />
		<path
   id="path23515"
   d="M169.301,16.21h-6.163v20.003L152.634,16.21h-8.385v31.317h6.163V23.083l12.828,24.444h6.061V16.21"
   style="fill:none;stroke:url(#linearGradient1328)" />
		<path
   id="path23515_1_"
   d="M269.711,16.21h-6.163v20.003L253.043,16.21h-8.385v31.317h6.163V23.083l12.828,24.444h6.062V16.21"
   style="fill:none;stroke:url(#linearGradient1328)" />
		<path
   id="path23515_2_"
   d="M428.299,16.21h-6.162v20.003L411.633,16.21h-8.387v31.317h6.163V23.083l12.828,24.444h6.062V16.21"
   style="fill:none;stroke:url(#linearGradient1328)" />
		<path
   id="path23517"
   d="M210.526,47.527V16.21h-7.07v31.317H210.526L210.526,47.527"
   style="fill:none;stroke:url(#linearGradient1328)" />
		<path
   id="path23521"
   d="M296.922,16.21v4.949h10.401v26.369h6.671v-26.37h10.504v-4.949H296.92l0,0"
   style="fill:none;stroke:url(#linearGradient1328)" />
	</g>
	<g
   id="g1307"
   style="fill:none;stroke:url(#linearGradient1328)">
		<path
   id="path23505"
   d="M543.92,69.03v-8.463h-42.717v40.229h43.113v-9.062h-31.855v-7.57h18.316v-8.457h-18.316V69.03H543.92    L543.92,69.03"
   style="fill:none;stroke:url(#linearGradient1328)" />
		<path
   id="path23507"
   d="M496.374,68.755c0.096-2.785-0.697-4.977-2.393-6.274c-1.596-1.394-4.08-2.09-7.467-2.09h-35.148v40.325    h32.658c8.563-0.099,12.744-2.887,12.744-8.562v-4.883c0-3.382-1.492-5.87-4.582-7.262c2.789-1.298,4.188-3.487,4.188-6.576    V68.755L496.374,68.755z M485.52,68.955c0.398,0.399,0.602,0.8,0.496,1.396v3.685c0.104,0.495-0.098,0.995-0.496,1.293    l-2.795,0.495h-20.107v-7.266h20.107C484.227,68.558,485.221,68.757,485.52,68.955L485.52,68.955z M462.618,91.855v-7.867h20.211    c1.496,0,2.393,0.201,2.889,0.5c0.402,0.401,0.596,0.998,0.596,1.993v2.886c0,0.897-0.191,1.594-0.596,1.891    c-0.496,0.4-1.393,0.597-2.889,0.597L462.618,91.855"
   style="fill:none;stroke:url(#linearGradient1328)" />
		<path
   id="path23509"
   d="M446.614,60.458h-11.25v31.167h-24.396V60.458h-11.248v30.271c-0.106,2.486,0.295,4.484,0.99,5.975    c0.6,1.395,1.797,2.49,3.389,3.089c1.597,0.695,3.684,0.993,6.47,0.896h25.093c2.789,0.097,4.977-0.201,6.57-0.896    c1.59-0.599,2.689-1.694,3.389-3.089c0.695-1.491,0.996-3.487,0.996-5.975V60.458"
   style="fill:none;stroke:url(#linearGradient1328)" />
		<path
   id="path23511"
   d="M394.09,64.607c-0.705-1.489-1.896-2.488-3.388-3.186c-1.596-0.602-3.784-0.898-6.473-0.898h-24.591    c-2.789,0-4.881,0.298-6.478,0.898c-1.591,0.697-2.786,1.696-3.382,3.186c-0.697,1.494-1.096,3.484-0.993,5.974v20.214    c-0.103,2.484,0.296,4.48,0.993,5.971c0.596,1.396,1.791,2.491,3.382,3.093c1.597,0.693,3.688,0.991,6.478,0.893h24.592    c2.688,0.098,4.877-0.199,6.473-0.893c1.492-0.602,2.684-1.697,3.387-3.093c0.597-1.489,0.996-3.485,0.996-5.971v-7.371    l-11.256,0.105v8.162h-23.893V69.39h23.893v7.165h11.256v-5.974C395.086,67.996,394.687,66.007,394.09,64.607"
   style="fill:none;stroke:url(#linearGradient1328)" />
		<path
   id="path23513"
   d="M340.461,69.03v-8.463h-42.718v40.229h43.116v-9.062h-31.861v-7.57h18.321v-8.457h-18.321V69.03H340.461    L340.461,69.03"
   style="fill:none;stroke:url(#linearGradient1328)" />
		<path
   id="path23523"
   d="M282.411,60.458l-17.127,28.48l-17.025-28.48h-10.254v33.159l-20.016-33.159h-10.056l-23.994,40.228    h30.068v-9.061h-13.442l12.447-20.013l16.828,29.072h18.519V79.179l12.842,21.505h8.266l12.942-21.505v21.505h10.354V60.457    h-10.354l0,0"
   style="fill:none;stroke:url(#linearGradient1328)" />
		<path
   id="path23525"
   d="M184.83,69.307v-8.77h-37.938c-2.685,0-4.879,0.3-6.474,0.899c-1.59,0.696-2.686,1.698-3.381,3.187    c-0.7,1.493-0.998,3.483-0.998,5.975v20.21c0,2.486,0.298,4.483,0.998,5.975c0.696,1.395,1.792,2.49,3.381,3.091    c1.594,0.692,3.789,0.991,6.474,0.895h27.584c3.978,0.097,6.768-0.599,8.458-2.091c1.595-1.595,2.391-4.183,2.294-7.868v-14.24    H159.14v8.47h15.135v6.667H147.29V69.307H184.83"
   style="fill:none;stroke:url(#linearGradient1328)" />
	</g>
	<g
   id="g1311"
   style="fill:none;stroke:url(#linearGradient1328)">
		<path
   id="path23527"
   d="M566.93,91.979h-1.693l-2.041,6.45c-0.334,0.513-0.51,1.024-0.51,1.362    c-0.172-0.338-0.346-0.682-0.512-1.188l-2.211-6.626h-1.699v9.17h1.027v-7.813l2.717,7.813h1.012l2.721-7.642v7.642h1.189V91.979"
   style="fill:none;stroke:url(#linearGradient1328)" />
		<path
   id="path23529"
   d="M554.016,93.167h2.893v-1.188h-7.139v1.188h3.063v7.982h1.186v-7.982"
   style="fill:none;stroke:url(#linearGradient1328)" />
	</g>
</g>
</svg>
