<?xml version="1.0" encoding="UTF-8" standalone="no"?>
<svg
   xmlns:dc="http://purl.org/dc/elements/1.1/"
   xmlns:cc="http://creativecommons.org/ns#"
   xmlns:rdf="http://www.w3.org/1999/02/22-rdf-syntax-ns#"
   xmlns:svg="http://www.w3.org/2000/svg"
   xmlns="http://www.w3.org/2000/svg"
   xmlns:xlink="http://www.w3.org/1999/xlink"
   xmlns:sodipodi="http://sodipodi.sourceforge.net/DTD/sodipodi-0.dtd"
   xmlns:inkscape="http://www.inkscape.org/namespaces/inkscape"
   version="1.1"
   x="0px"
   y="0px"
   width="566.929px"
   height="129.21px"
   viewBox="0 0 566.929 129.21"
   enable-background="new 0 0 566.929 129.21"
   xml:space="preserve"
   id="svg889"
   sodipodi:docname="system.svg"
   inkscape:version="1.0.2 (e86c8708, 2021-01-15)"><metadata
   id="metadata895"><rdf:RDF><cc:Work
       rdf:about=""><dc:format>image/svg+xml</dc:format><dc:type
         rdf:resource="http://purl.org/dc/dcmitype/StillImage" /></cc:Work></rdf:RDF></metadata><defs
   id="defs893"><linearGradient
     inkscape:collect="always"
     id="linearGradient936"><stop
       style="stop-color:#ff00ff;stop-opacity:1"
       offset="0"
       id="stop932" /><stop
       style="stop-color:#0600ff;stop-opacity:1"
       offset="1"
       id="stop934" /></linearGradient><linearGradient
     inkscape:collect="always"
     xlink:href="#linearGradient936"
     id="linearGradient938"
     x1="3.4722574"
     y1="65.865072"
     x2="564.88316"
     y2="65.865072"
     gradientUnits="userSpaceOnUse" /></defs><sodipodi:namedview
   pagecolor="#ffffff"
   bordercolor="#666666"
   borderopacity="1"
   objecttolerance="10"
   gridtolerance="10"
   guidetolerance="10"
   inkscape:pageopacity="0"
   inkscape:pageshadow="2"
   inkscape:window-width="1280"
   inkscape:window-height="800"
   id="namedview891"
   showgrid="false"
   inkscape:zoom="0.94294948"
   inkscape:cx="254.24001"
   inkscape:cy="58.577954"
   inkscape:window-x="0"
   inkscape:window-y="0"
   inkscape:window-maximized="0"
   inkscape:current-layer="svg889" />
<g
   id="g930"
   style="stroke:url(#linearGradient938);fill:none"><g
     id="Layer_2"
     transform="matrix(1.1292881,0,0,1.1292881,-28.365762,-7.1908334)"
     style="stroke:url(#linearGradient938);fill:none">
	<g
   id="g837"
   style="stroke:url(#linearGradient938);fill:none">
		<g
   id="g835"
   style="stroke:url(#linearGradient938);fill:none">
			<path
   d="m 288.25,73.605 6.785,-15.589 -8.479,-0.067 -4.37,10.112 -6.916,-6.197 c 5.153,-5.023 5.807,-6.196 6.067,-11.025 0.261,-4.825 -4.11,-10.762 -12.264,-10.762 -8.154,0 -11.415,6.719 -11.415,11.156 0,4.435 2.414,7.174 5.415,10.044 -5.022,3.328 -9.002,6.393 -9.002,16.111 0,7.438 6.589,13.961 15.981,13.961 9.393,0 13.438,-7.504 14.676,-10.176 3.132,2.868 10.242,9.326 10.242,9.326 l 5.154,-5.673 z M 269.466,47.773 c 1.978,0 4.044,1.131 4.044,3.589 0,2.869 -3.979,5.217 -3.979,5.217 -3.282,-2.718 -4.109,-3.195 -4.109,-5.544 -0.001,-2.349 2.238,-3.262 4.044,-3.262 z m 0.521,35.878 c -3.131,0 -8.349,-0.913 -8.349,-6.72 0,-5.805 2.217,-7.076 7.371,-10.438 0,0 8.153,7.373 9.915,8.872 -2.478,6.98 -5.805,8.286 -8.937,8.286 z"
   id="path833"
   style="stroke:url(#linearGradient938);fill:none" />
		</g>
	</g>
	<g
   id="g859"
   style="stroke:url(#linearGradient938);fill:none">
		<polygon
   points="187.071,39.333 195.595,39.333 195.595,90.125 187.071,90.125 187.071,54.988 163.414,90.299 154.978,90.299 154.978,54.815 131.496,90.125 121.232,90.125 155.065,39.247 163.414,39.247 163.414,74.382 "
   id="polygon839"
   style="stroke:url(#linearGradient938);fill:none" />
		<polygon
   points="211.512,47.944 211.512,60.903 229.08,60.903 229.08,69.6 211.423,69.6 211.423,81.602 228.992,81.602 228.992,90.212 202.901,90.212 202.901,39.333 229.08,39.333 229.08,47.944 "
   id="polygon841"
   style="stroke:url(#linearGradient938);fill:none" />
		<g
   id="g847"
   style="stroke:url(#linearGradient938);fill:none">
			<g
   id="g845"
   style="stroke:url(#linearGradient938);fill:none">
				<path
   d="M 110.1,39.333 76.267,90.387 h 10.438 l 7.217,-11.135 h 16.352 v 11.135 h 8.436 V 39.333 Z m 0.087,31.137 h -10.35 l 10.35,-15.569 z"
   id="path843"
   style="stroke:url(#linearGradient938);fill:none" />
			</g>
		</g>
		<g
   id="g853"
   style="stroke:url(#linearGradient938);fill:none">
			<g
   id="g851"
   style="stroke:url(#linearGradient938);fill:none">
				<path
   d="m 81.937,65.474 h -26.63 v 8.3 l 17.268,0.078 c -2.997,6.684 -9.709,11.339 -17.507,11.339 -10.592,0 -19.178,-8.587 -19.178,-19.18 0,-10.591 8.586,-19.177 19.178,-19.177 6.578,0 12.38,3.312 15.835,8.356 l 8.769,-0.008 C 75.507,45.733 66.058,39.136 55.068,39.136 c -14.842,0 -26.875,12.033 -26.875,26.875 0,14.844 12.033,26.875 26.875,26.875 14.842,0 26.875,-12.031 26.875,-26.875 0,-0.179 -0.003,-0.359 -0.006,-0.537 z"
   id="path849"
   style="stroke:url(#linearGradient938);fill:none" />
			</g>
		</g>
		
		
	</g>
	<g
   id="g879"
   style="stroke:url(#linearGradient938);fill:none">
		<g
   id="g865"
   style="stroke:url(#linearGradient938);fill:none">
			<g
   id="g863"
   style="stroke:url(#linearGradient938);fill:none">
				<path
   d="m 401.653,37.884 -33.831,51.053 h 10.436 l 7.219,-11.135 h 16.35 v 11.135 h 8.437 V 37.884 Z m 0.087,31.135 H 391.392 L 401.74,53.452 Z"
   id="path861"
   style="stroke:url(#linearGradient938);fill:none" />
			</g>
		</g>
		<g
   id="g871"
   style="stroke:url(#linearGradient938);fill:none">
			<g
   id="g869"
   style="stroke:url(#linearGradient938);fill:none">
				<path
   d="m 480.065,75.239 c -3.382,3.919 -8.384,6.397 -13.965,6.397 -10.184,0 -18.438,-8.254 -18.438,-18.438 0,-10.183 8.255,-18.439 18.438,-18.439 5.364,0 10.19,2.291 13.56,5.945 l 9.868,-0.003 c -4.483,-8.45 -13.371,-14.203 -23.602,-14.203 -14.747,0 -26.7,11.953 -26.7,26.7 0,14.748 11.953,26.701 26.7,26.701 10.416,0 19.44,-5.966 23.842,-14.664 z"
   id="path867"
   style="stroke:url(#linearGradient938);fill:none" />
			</g>
		</g>
		<polygon
   points="352.949,88.942 361.82,88.942 395.391,38.149 384.868,38.149 361.733,73.288 361.733,38.236 353.036,38.236 329.726,73.374 329.726,38.063 320.943,38.063 320.943,89.03 329.726,89.03 352.949,54.241 "
   id="polygon873"
   style="stroke:url(#linearGradient938);fill:none" />
		<polygon
   points="431.659,88.769 422.96,88.769 422.96,46.674 413.221,46.674 413.309,37.978 441.485,37.978 441.485,46.586 431.659,46.586 "
   id="polygon875"
   style="stroke:url(#linearGradient938);fill:none" />
		<polygon
   points="516.544,67.375 516.544,88.857 525.33,88.857 525.33,38.149 516.72,38.149 516.72,58.676 500.802,58.676 500.802,38.149 492.192,38.063 492.192,89.032 500.802,89.032 500.802,67.375 "
   id="polygon877"
   style="stroke:url(#linearGradient938);fill:none" />
	</g>
</g></g>

</svg>
