<?xml version="1.0" encoding="UTF-8" standalone="no"?>
<svg
   xmlns:dc="http://purl.org/dc/elements/1.1/"
   xmlns:cc="http://creativecommons.org/ns#"
   xmlns:rdf="http://www.w3.org/1999/02/22-rdf-syntax-ns#"
   xmlns:svg="http://www.w3.org/2000/svg"
   xmlns="http://www.w3.org/2000/svg"
   xmlns:xlink="http://www.w3.org/1999/xlink"
   xmlns:sodipodi="http://sodipodi.sourceforge.net/DTD/sodipodi-0.dtd"
   xmlns:inkscape="http://www.inkscape.org/namespaces/inkscape"
   width="397.32849"
   height="103.70829"
   viewBox="0 0 105.12649 27.439486"
   version="1.1"
   id="svg9136"
   sodipodi:docname="system.svg"
   inkscape:version="1.0.2 (e86c8708, 2021-01-15)">
  <sodipodi:namedview
     pagecolor="#ffffff"
     bordercolor="#666666"
     borderopacity="1"
     objecttolerance="10"
     gridtolerance="10"
     guidetolerance="10"
     inkscape:pageopacity="0"
     inkscape:pageshadow="2"
     inkscape:window-width="1280"
     inkscape:window-height="800"
     id="namedview926"
     showgrid="false"
     inkscape:zoom="1.7315647"
     inkscape:cx="198.66425"
     inkscape:cy="51.854145"
     inkscape:window-x="0"
     inkscape:window-y="0"
     inkscape:window-maximized="0"
     inkscape:current-layer="svg9136" />
  <defs
     id="defs9130">
    <linearGradient
       id="linearGradient851-9">
      <stop
         style="stop-color:#ff00ff;stop-opacity:1"
         offset="0"
         id="stop847" />
      <stop
         style="stop-color:#0600ff;stop-opacity:1"
         offset="1"
         id="stop849" />
    </linearGradient>
    <linearGradient
       xlink:href="#linearGradient851-9"
       id="linearGradient857"
       gradientUnits="userSpaceOnUse"
       x1="12.463088"
       y1="264.9408"
       x2="122.80725"
       y2="264.9408"
       gradientTransform="translate(0,0.86910226)" />
  </defs>
  <metadata
     id="metadata9133">
    <rdf:RDF>
      <cc:Work
         rdf:about="">
        <dc:format>image/svg+xml</dc:format>
        <dc:type
           rdf:resource="http://purl.org/dc/dcmitype/StillImage" />
        <dc:title />
      </cc:Work>
    </rdf:RDF>
  </metadata>
  <g
     id="layer1"
     transform="translate(-10.547501,-271.9401)">
    <g
       aria-label="Last Played"
       transform="scale(0.92993948,1.0753388)"
       id="text845"
       style="font-size:17.6234px;line-height:1.25;font-family:'Arial Black';-inkscape-font-specification:'Arial Black, ';fill:none;stroke:url(#linearGradient857);stroke-width:0.440585">
      <path
         d="m 12.463088,257.6479 h 3.898145 v 9.50872 h 6.083859 v 3.10647 h -9.982004 z"
         style="fill:none;stroke:url(#linearGradient857);stroke-width:0.440585"
         id="path928" />
      <path
         d="m 27.195149,264.08458 -3.347414,-0.35282 q 0.189314,-0.87772 0.542126,-1.37682 0.361418,-0.50771 1.032622,-0.87773 0.481889,-0.26676 1.325197,-0.41305 0.843307,-0.14629 1.824297,-0.14629 1.574747,0 2.529921,0.18071 0.955175,0.1721 1.591958,0.73144 0.447469,0.38723 0.705624,1.10146 0.258156,0.70563 0.258156,1.35101 v 4.03583 q 0,0.64539 0.07745,1.01541 0.08605,0.36142 0.361418,0.92936 h -3.287178 q -0.197919,-0.35281 -0.258155,-0.53352 -0.06024,-0.18931 -0.120472,-0.58515 -0.688414,0.6626 -1.368223,0.94657 -0.929359,0.37863 -2.159899,0.37863 -1.634984,0 -2.486896,-0.75726 -0.843307,-0.75725 -0.843307,-1.86732 0,-1.04123 0.610967,-1.71243 0.610968,-0.67121 2.254556,-0.9982 1.970585,-0.39584 2.555737,-0.55073 0.585152,-0.1635 1.239146,-0.42166 0,-0.64539 -0.266761,-0.90354 -0.26676,-0.25816 -0.937964,-0.25816 -0.860517,0 -1.290776,0.27537 -0.335602,0.21513 -0.542126,0.80889 z m 3.037627,1.8415 q -0.722835,0.25816 -1.505906,0.45608 -1.067042,0.28397 -1.351013,0.55933 -0.292576,0.28398 -0.292576,0.64539 0,0.41305 0.283971,0.67981 0.292576,0.25816 0.851913,0.25816 0.585152,0 1.084252,-0.28397 0.507705,-0.28398 0.714229,-0.68842 0.21513,-0.41305 0.21513,-1.06704 z"
         style="fill:none;stroke:url(#linearGradient857);stroke-width:0.440585"
         id="path930" />
      <path
         d="m 35.154936,267.73317 3.476491,-0.327 q 0.215129,0.61958 0.602362,0.88634 0.387233,0.26676 1.032621,0.26676 0.705625,0 1.092858,-0.30118 0.301181,-0.22374 0.301181,-0.55934 0,-0.37863 -0.395838,-0.58515 -0.283971,-0.14629 -1.505906,-0.36142 -1.824297,-0.31839 -2.538527,-0.58515 -0.705624,-0.27537 -1.196119,-0.92076 -0.48189,-0.64538 -0.48189,-1.47148 0,-0.90354 0.524916,-1.55754 0.524915,-0.65399 1.445669,-0.97238 0.920754,-0.327 2.469686,-0.327 1.634983,0 2.409449,0.24955 0.783071,0.24955 1.299381,0.77447 0.524916,0.52491 0.869123,1.41985 l -3.321598,0.327 q -0.129077,-0.43887 -0.430259,-0.64539 -0.413048,-0.27537 -0.9982,-0.27537 -0.593757,0 -0.869123,0.21513 -0.26676,0.20653 -0.26676,0.50771 0,0.3356 0.344207,0.5077 0.344207,0.17211 1.4973,0.30979 1.746851,0.19792 2.598764,0.55073 0.851912,0.35281 1.299381,1.00681 0.456074,0.65399 0.456074,1.43706 0,0.79168 -0.481889,1.54033 -0.473285,0.74865 -1.505906,1.19612 -1.024016,0.43886 -2.796682,0.43886 -2.504106,0 -3.571148,-0.71423 -1.058437,-0.71423 -1.359618,-2.03082 z"
         style="fill:none;stroke:url(#linearGradient857);stroke-width:0.440585"
         id="path932" />
      <path
         d="m 50.77333,257.6479 v 3.4765 h 1.927559 v 2.55573 H 50.77333 v 3.24415 q 0,0.58516 0.111867,0.77447 0.172103,0.29258 0.602362,0.29258 0.387233,0 1.084252,-0.22374 l 0.258156,2.41806 q -1.299382,0.28397 -2.42666,0.28397 -1.307987,0 -1.927559,-0.33561 -0.619573,-0.3356 -0.920754,-1.01541 -0.292576,-0.68841 -0.292576,-2.22013 v -3.21834 h -1.290776 v -2.55573 h 1.290776 v -1.67801 z"
         style="fill:none;stroke:url(#linearGradient857);stroke-width:0.440585"
         id="path934" />
      <path
         d="m 60.462758,257.6479 h 6.479697 q 2.116873,0 3.166705,1.00681 1.058436,1.00681 1.058436,2.86552 0,1.91035 -1.153093,2.986 -1.144489,1.07565 -3.502307,1.07565 h -2.134083 v 4.68121 h -3.915355 z m 3.915355,5.37824 h 0.955174 q 1.127278,0 1.583353,-0.38723 0.456074,-0.39584 0.456074,-1.00681 0,-0.59376 -0.395838,-1.0068 -0.395838,-0.41305 -1.488696,-0.41305 h -1.110067 z"
         style="fill:none;stroke:url(#linearGradient857);stroke-width:0.440585"
         id="path936" />
      <path
         d="m 73.103761,257.6479 h 3.510912 v 12.61519 h -3.510912 z"
         style="fill:none;stroke:url(#linearGradient857);stroke-width:0.440585"
         id="path938" />
      <path
         d="m 82.06175,264.08458 -3.347414,-0.35282 q 0.189314,-0.87772 0.542126,-1.37682 0.361418,-0.50771 1.032622,-0.87773 0.481889,-0.26676 1.325197,-0.41305 0.843307,-0.14629 1.824297,-0.14629 1.574747,0 2.529921,0.18071 0.955175,0.1721 1.591958,0.73144 0.447469,0.38723 0.705624,1.10146 0.258156,0.70563 0.258156,1.35101 v 4.03583 q 0,0.64539 0.07745,1.01541 0.08605,0.36142 0.361418,0.92936 h -3.287178 q -0.197919,-0.35281 -0.258155,-0.53352 -0.06024,-0.18931 -0.120472,-0.58515 -0.688414,0.6626 -1.368223,0.94657 -0.929359,0.37863 -2.159899,0.37863 -1.634984,0 -2.486896,-0.75726 -0.843307,-0.75725 -0.843307,-1.86732 0,-1.04123 0.610967,-1.71243 0.610968,-0.67121 2.254556,-0.9982 1.970585,-0.39584 2.555737,-0.55073 0.585152,-0.1635 1.239146,-0.42166 0,-0.64539 -0.266761,-0.90354 -0.26676,-0.25816 -0.937964,-0.25816 -0.860517,0 -1.290776,0.27537 -0.335602,0.21513 -0.542126,0.80889 z m 3.037627,1.8415 q -0.722835,0.25816 -1.505906,0.45608 -1.067042,0.28397 -1.351013,0.55933 -0.292576,0.28398 -0.292576,0.64539 0,0.41305 0.283971,0.67981 0.292576,0.25816 0.851913,0.25816 0.585152,0 1.084252,-0.28397 0.507705,-0.28398 0.714229,-0.68842 0.21513,-0.41305 0.21513,-1.06704 z"
         style="fill:none;stroke:url(#linearGradient857);stroke-width:0.440585"
         id="path940" />
      <path
         d="m 89.6257,261.1244 h 3.700225 l 1.884534,6.08385 1.746851,-6.08385 h 3.45067 l -3.622774,9.76687 q -0.619573,1.6694 -1.264961,2.25456 -0.912148,0.82609 -2.779472,0.82609 -0.757255,0 -2.340607,-0.20652 L 90.1248,271.32153 q 0.757256,0.24094 1.686615,0.24094 0.619572,0 0.9982,-0.28397 0.387233,-0.28397 0.653993,-1.01541 z"
         style="fill:none;stroke:url(#linearGradient857);stroke-width:0.440585"
         id="path942" />
      <path
         d="m 111.56029,266.56287 h -7.02183 q 0.0947,0.8433 0.45608,1.25635 0.5077,0.59376 1.32519,0.59376 0.51632,0 0.98099,-0.25816 0.28398,-0.16349 0.61097,-0.57654 l 3.45068,0.31839 q -0.79168,1.37683 -1.91035,1.97919 -1.11867,0.59376 -3.20973,0.59376 -1.81569,0 -2.85692,-0.50771 -1.04123,-0.51631 -1.72964,-1.62638 -0.67981,-1.11867 -0.67981,-2.62458 0,-2.14268 1.36822,-3.46788 1.37683,-1.3252 3.79489,-1.3252 1.96198,0 3.09786,0.59376 1.13588,0.59376 1.72964,1.72103 0.59376,1.12728 0.59376,2.93437 z m -3.56255,-1.67801 q -0.10326,-1.01541 -0.55073,-1.45428 -0.43886,-0.43886 -1.1617,-0.43886 -0.8347,0 -1.3338,0.6626 -0.31839,0.41305 -0.40444,1.23054 z"
         style="fill:none;stroke:url(#linearGradient857);stroke-width:0.440585"
         id="path944" />
      <path
         d="m 122.80725,257.6479 v 12.61519 h -3.27857 v -1.35101 q -0.68841,0.86052 -1.25636,1.1617 -0.75725,0.39584 -1.68661,0.39584 -1.86732,0 -2.85692,-1.41986 -0.98099,-1.41985 -0.98099,-3.45067 0,-2.27177 1.08425,-3.47649 1.09286,-1.20473 2.77087,-1.20473 0.81749,0 1.48009,0.27537 0.6712,0.27536 1.18751,0.82609 v -4.37143 z m -3.51091,8.02003 q 0,-1.07565 -0.45607,-1.60056 -0.45608,-0.53353 -1.1531,-0.53353 -0.61096,0 -1.02401,0.50771 -0.41305,0.50771 -0.41305,1.70382 0,1.11868 0.42165,1.64359 0.43026,0.51631 1.05844,0.51631 0.6712,0 1.11867,-0.52491 0.44747,-0.52492 0.44747,-1.71243 z"
         style="fill:none;stroke:url(#linearGradient857);stroke-width:0.440585"
         id="path946" />
    </g>
  </g>
</svg>
